M48
;DRILL file {kicad (2014-jul-16 BZR unknown)-product} date Di 22 Jul 2014 17:35:15 CEST
;FORMAT={-:-/ absolute / metric / decimal}
FMAT,2
METRIC,TZ
T1C0.600
T2C1.000
T3C3.100
%
G90
G05
M71
T1
X170.75Y-110.75
X170.75Y-112.
X170.8Y-113.2
X171.75Y-110.75
X171.75Y-112.
X171.75Y-113.25
X197.866Y-116.586
X197.866Y-119.38
X197.874Y-118.
X198.9Y-116.6
X198.9Y-118.
X198.9Y-119.4
X199.898Y-116.586
X199.898Y-117.983
X199.898Y-119.38
X226.9Y-110.5
X226.9Y-112.
X226.9Y-113.4
X228.219Y-113.411
X228.25Y-110.5
X228.25Y-112.
T2
X207.46Y-112.
X212.54Y-112.
T3
X179.Y-112.
X219.Y-112.
T0
M30
