%FSLAX46Y46*%
G04 Gerber Fmt 4.6, Leading zero omitted, Abs format (unit mm)*
G04 Created by KiCad (PCBNEW (2014-jul-16 BZR unknown)-product) date Di 22 Jul 2014 17:33:52 CEST*
%MOMM*%
G01*
G04 APERTURE LIST*
%ADD10C,0.100000*%
%ADD11C,0.200000*%
%ADD12C,0.175000*%
%ADD13C,0.300000*%
%ADD14C,0.099060*%
%ADD15C,0.050800*%
%ADD16C,0.150000*%
%ADD17C,0.130000*%
%ADD18C,0.074930*%
%ADD19C,0.080000*%
%ADD20C,5.260000*%
%ADD21R,0.859440X1.057560*%
%ADD22O,0.675000X1.890000*%
%ADD23R,1.975000X1.890000*%
%ADD24R,2.460000X2.460000*%
%ADD25C,2.460000*%
G04 APERTURE END LIST*
D10*
D11*
X206328572Y-114461905D02*
X205871429Y-114461905D01*
X206100000Y-114461905D02*
X206100000Y-113661905D01*
X206023810Y-113776190D01*
X205947619Y-113852381D01*
X205871429Y-113890476D01*
X206633334Y-113738095D02*
X206671429Y-113700000D01*
X206747620Y-113661905D01*
X206938096Y-113661905D01*
X207014286Y-113700000D01*
X207052382Y-113738095D01*
X207090477Y-113814286D01*
X207090477Y-113890476D01*
X207052382Y-114004762D01*
X206595239Y-114461905D01*
X207090477Y-114461905D01*
X207319048Y-113661905D02*
X207585715Y-114461905D01*
X207852382Y-113661905D01*
X208119048Y-114461905D02*
X208119048Y-113661905D01*
X208309524Y-113661905D01*
X208423810Y-113700000D01*
X208500001Y-113776190D01*
X208538096Y-113852381D01*
X208576191Y-114004762D01*
X208576191Y-114119048D01*
X208538096Y-114271429D01*
X208500001Y-114347619D01*
X208423810Y-114423810D01*
X208309524Y-114461905D01*
X208119048Y-114461905D01*
X209376191Y-114385714D02*
X209338096Y-114423810D01*
X209223810Y-114461905D01*
X209147620Y-114461905D01*
X209033334Y-114423810D01*
X208957143Y-114347619D01*
X208919048Y-114271429D01*
X208880953Y-114119048D01*
X208880953Y-114004762D01*
X208919048Y-113852381D01*
X208957143Y-113776190D01*
X209033334Y-113700000D01*
X209147620Y-113661905D01*
X209223810Y-113661905D01*
X209338096Y-113700000D01*
X209376191Y-113738095D01*
X209719048Y-114385714D02*
X209757143Y-114423810D01*
X209719048Y-114461905D01*
X209680953Y-114423810D01*
X209719048Y-114385714D01*
X209719048Y-114461905D01*
X210100000Y-114385714D02*
X210138095Y-114423810D01*
X210100000Y-114461905D01*
X210061905Y-114423810D01*
X210100000Y-114385714D01*
X210100000Y-114461905D01*
X210480952Y-114385714D02*
X210519047Y-114423810D01*
X210480952Y-114461905D01*
X210442857Y-114423810D01*
X210480952Y-114385714D01*
X210480952Y-114461905D01*
X210823809Y-113738095D02*
X210861904Y-113700000D01*
X210938095Y-113661905D01*
X211128571Y-113661905D01*
X211204761Y-113700000D01*
X211242857Y-113738095D01*
X211280952Y-113814286D01*
X211280952Y-113890476D01*
X211242857Y-114004762D01*
X210785714Y-114461905D01*
X211280952Y-114461905D01*
X211738095Y-114004762D02*
X211661904Y-113966667D01*
X211623809Y-113928571D01*
X211585714Y-113852381D01*
X211585714Y-113814286D01*
X211623809Y-113738095D01*
X211661904Y-113700000D01*
X211738095Y-113661905D01*
X211890476Y-113661905D01*
X211966666Y-113700000D01*
X212004762Y-113738095D01*
X212042857Y-113814286D01*
X212042857Y-113852381D01*
X212004762Y-113928571D01*
X211966666Y-113966667D01*
X211890476Y-114004762D01*
X211738095Y-114004762D01*
X211661904Y-114042857D01*
X211623809Y-114080952D01*
X211585714Y-114157143D01*
X211585714Y-114309524D01*
X211623809Y-114385714D01*
X211661904Y-114423810D01*
X211738095Y-114461905D01*
X211890476Y-114461905D01*
X211966666Y-114423810D01*
X212004762Y-114385714D01*
X212042857Y-114309524D01*
X212042857Y-114157143D01*
X212004762Y-114080952D01*
X211966666Y-114042857D01*
X211890476Y-114004762D01*
X212271428Y-113661905D02*
X212538095Y-114461905D01*
X212804762Y-113661905D01*
X213071428Y-114461905D02*
X213071428Y-113661905D01*
X213261904Y-113661905D01*
X213376190Y-113700000D01*
X213452381Y-113776190D01*
X213490476Y-113852381D01*
X213528571Y-114004762D01*
X213528571Y-114119048D01*
X213490476Y-114271429D01*
X213452381Y-114347619D01*
X213376190Y-114423810D01*
X213261904Y-114461905D01*
X213071428Y-114461905D01*
X214328571Y-114385714D02*
X214290476Y-114423810D01*
X214176190Y-114461905D01*
X214100000Y-114461905D01*
X213985714Y-114423810D01*
X213909523Y-114347619D01*
X213871428Y-114271429D01*
X213833333Y-114119048D01*
X213833333Y-114004762D01*
X213871428Y-113852381D01*
X213909523Y-113776190D01*
X213985714Y-113700000D01*
X214100000Y-113661905D01*
X214176190Y-113661905D01*
X214290476Y-113700000D01*
X214328571Y-113738095D01*
X182000000Y-110500000D02*
X185500000Y-110500000D01*
X182407144Y-115978571D02*
X182050001Y-115978571D01*
X182050001Y-113835714D01*
X182407144Y-113835714D01*
X183978573Y-115978571D02*
X184335716Y-115978571D01*
X184335716Y-113835714D01*
X183978573Y-113835714D01*
X186764287Y-114692857D02*
X186264287Y-114692857D01*
X186264287Y-115478571D02*
X186264287Y-113978571D01*
X186978573Y-113978571D01*
X187478572Y-115050000D02*
X188192858Y-115050000D01*
X187335715Y-115478571D02*
X187835715Y-113978571D01*
X188335715Y-115478571D01*
X188835715Y-115478571D02*
X188835715Y-113978571D01*
X190264287Y-115478571D02*
X189550001Y-115478571D01*
X189550001Y-113978571D01*
X190764287Y-115335714D02*
X190835715Y-115407143D01*
X190764287Y-115478571D01*
X190692858Y-115407143D01*
X190764287Y-115335714D01*
X190764287Y-115478571D01*
X190764287Y-114550000D02*
X190835715Y-114621429D01*
X190764287Y-114692857D01*
X190692858Y-114621429D01*
X190764287Y-114550000D01*
X190764287Y-114692857D01*
X192264287Y-115621429D02*
X193407144Y-115621429D01*
X193407144Y-115621429D02*
X194550001Y-115621429D01*
X194550001Y-115621429D02*
X195692858Y-115621429D01*
X195692858Y-115621429D02*
X196835715Y-115621429D01*
X196835715Y-115621429D02*
X197978572Y-115621429D01*
X197978572Y-115621429D02*
X199121429Y-115621429D01*
X199121429Y-115621429D02*
X200264286Y-115621429D01*
X200264286Y-115621429D02*
X201407143Y-115621429D01*
X201407143Y-115621429D02*
X202550000Y-115621429D01*
X202550000Y-115621429D02*
X203692857Y-115621429D01*
X203692857Y-115621429D02*
X204835714Y-115621429D01*
X204835714Y-115621429D02*
X205978571Y-115621429D01*
D12*
X182269048Y-112181071D02*
X182078571Y-112181071D01*
X182078571Y-111038214D01*
X182269048Y-111038214D01*
X183107143Y-112181071D02*
X183297619Y-112181071D01*
X183297619Y-111038214D01*
X183107143Y-111038214D01*
X184326190Y-111914405D02*
X184326190Y-111114405D01*
X184630952Y-111114405D01*
X184707143Y-111152500D01*
X184745238Y-111190595D01*
X184783333Y-111266786D01*
X184783333Y-111381071D01*
X184745238Y-111457262D01*
X184707143Y-111495357D01*
X184630952Y-111533452D01*
X184326190Y-111533452D01*
X185469047Y-111914405D02*
X185469047Y-111495357D01*
X185430952Y-111419167D01*
X185354762Y-111381071D01*
X185202381Y-111381071D01*
X185126190Y-111419167D01*
X185469047Y-111876310D02*
X185392857Y-111914405D01*
X185202381Y-111914405D01*
X185126190Y-111876310D01*
X185088095Y-111800119D01*
X185088095Y-111723929D01*
X185126190Y-111647738D01*
X185202381Y-111609643D01*
X185392857Y-111609643D01*
X185469047Y-111571548D01*
X185811905Y-111876310D02*
X185888095Y-111914405D01*
X186040476Y-111914405D01*
X186116667Y-111876310D01*
X186154762Y-111800119D01*
X186154762Y-111762024D01*
X186116667Y-111685833D01*
X186040476Y-111647738D01*
X185926191Y-111647738D01*
X185850000Y-111609643D01*
X185811905Y-111533452D01*
X185811905Y-111495357D01*
X185850000Y-111419167D01*
X185926191Y-111381071D01*
X186040476Y-111381071D01*
X186116667Y-111419167D01*
X186459524Y-111876310D02*
X186535714Y-111914405D01*
X186688095Y-111914405D01*
X186764286Y-111876310D01*
X186802381Y-111800119D01*
X186802381Y-111762024D01*
X186764286Y-111685833D01*
X186688095Y-111647738D01*
X186573810Y-111647738D01*
X186497619Y-111609643D01*
X186459524Y-111533452D01*
X186459524Y-111495357D01*
X186497619Y-111419167D01*
X186573810Y-111381071D01*
X186688095Y-111381071D01*
X186764286Y-111419167D01*
X187145238Y-111838214D02*
X187183333Y-111876310D01*
X187145238Y-111914405D01*
X187107143Y-111876310D01*
X187145238Y-111838214D01*
X187145238Y-111914405D01*
X187145238Y-111419167D02*
X187183333Y-111457262D01*
X187145238Y-111495357D01*
X187107143Y-111457262D01*
X187145238Y-111419167D01*
X187145238Y-111495357D01*
X188097619Y-111685833D02*
X188478571Y-111685833D01*
X188021428Y-111914405D02*
X188288095Y-111114405D01*
X188554762Y-111914405D01*
X188783333Y-111876310D02*
X188859523Y-111914405D01*
X189011904Y-111914405D01*
X189088095Y-111876310D01*
X189126190Y-111800119D01*
X189126190Y-111762024D01*
X189088095Y-111685833D01*
X189011904Y-111647738D01*
X188897619Y-111647738D01*
X188821428Y-111609643D01*
X188783333Y-111533452D01*
X188783333Y-111495357D01*
X188821428Y-111419167D01*
X188897619Y-111381071D01*
X189011904Y-111381071D01*
X189088095Y-111419167D01*
X189430952Y-111876310D02*
X189507142Y-111914405D01*
X189659523Y-111914405D01*
X189735714Y-111876310D01*
X189773809Y-111800119D01*
X189773809Y-111762024D01*
X189735714Y-111685833D01*
X189659523Y-111647738D01*
X189545238Y-111647738D01*
X189469047Y-111609643D01*
X189430952Y-111533452D01*
X189430952Y-111495357D01*
X189469047Y-111419167D01*
X189545238Y-111381071D01*
X189659523Y-111381071D01*
X189735714Y-111419167D01*
X190421428Y-111876310D02*
X190345238Y-111914405D01*
X190192857Y-111914405D01*
X190116666Y-111876310D01*
X190078571Y-111800119D01*
X190078571Y-111495357D01*
X190116666Y-111419167D01*
X190192857Y-111381071D01*
X190345238Y-111381071D01*
X190421428Y-111419167D01*
X190459523Y-111495357D01*
X190459523Y-111571548D01*
X190078571Y-111647738D01*
X190802380Y-111914405D02*
X190802380Y-111381071D01*
X190802380Y-111457262D02*
X190840475Y-111419167D01*
X190916666Y-111381071D01*
X191030952Y-111381071D01*
X191107142Y-111419167D01*
X191145237Y-111495357D01*
X191145237Y-111914405D01*
X191145237Y-111495357D02*
X191183333Y-111419167D01*
X191259523Y-111381071D01*
X191373809Y-111381071D01*
X191449999Y-111419167D01*
X191488094Y-111495357D01*
X191488094Y-111914405D01*
X191869047Y-111914405D02*
X191869047Y-111114405D01*
X191869047Y-111419167D02*
X191945238Y-111381071D01*
X192097619Y-111381071D01*
X192173809Y-111419167D01*
X192211904Y-111457262D01*
X192250000Y-111533452D01*
X192250000Y-111762024D01*
X192211904Y-111838214D01*
X192173809Y-111876310D01*
X192097619Y-111914405D01*
X191945238Y-111914405D01*
X191869047Y-111876310D01*
X192707143Y-111914405D02*
X192630952Y-111876310D01*
X192592857Y-111800119D01*
X192592857Y-111114405D01*
X192935715Y-111381071D02*
X193126191Y-111914405D01*
X193316667Y-111381071D02*
X193126191Y-111914405D01*
X193050000Y-112104881D01*
X193011905Y-112142976D01*
X192935715Y-112181071D01*
X194116667Y-111114405D02*
X194573810Y-111114405D01*
X194345239Y-111914405D02*
X194345239Y-111114405D01*
X195145239Y-111876310D02*
X195069049Y-111914405D01*
X194916668Y-111914405D01*
X194840477Y-111876310D01*
X194802382Y-111800119D01*
X194802382Y-111495357D01*
X194840477Y-111419167D01*
X194916668Y-111381071D01*
X195069049Y-111381071D01*
X195145239Y-111419167D01*
X195183334Y-111495357D01*
X195183334Y-111571548D01*
X194802382Y-111647738D01*
X195488096Y-111876310D02*
X195564286Y-111914405D01*
X195716667Y-111914405D01*
X195792858Y-111876310D01*
X195830953Y-111800119D01*
X195830953Y-111762024D01*
X195792858Y-111685833D01*
X195716667Y-111647738D01*
X195602382Y-111647738D01*
X195526191Y-111609643D01*
X195488096Y-111533452D01*
X195488096Y-111495357D01*
X195526191Y-111419167D01*
X195602382Y-111381071D01*
X195716667Y-111381071D01*
X195792858Y-111419167D01*
X196059524Y-111381071D02*
X196364286Y-111381071D01*
X196173810Y-111114405D02*
X196173810Y-111800119D01*
X196211905Y-111876310D01*
X196288096Y-111914405D01*
X196364286Y-111914405D01*
X182269048Y-113476071D02*
X182078571Y-113476071D01*
X182078571Y-112333214D01*
X182269048Y-112333214D01*
X183107143Y-113476071D02*
X183297619Y-113476071D01*
X183297619Y-112333214D01*
X183107143Y-112333214D01*
X184326190Y-113209405D02*
X184326190Y-112409405D01*
X184630952Y-112409405D01*
X184707143Y-112447500D01*
X184745238Y-112485595D01*
X184783333Y-112561786D01*
X184783333Y-112676071D01*
X184745238Y-112752262D01*
X184707143Y-112790357D01*
X184630952Y-112828452D01*
X184326190Y-112828452D01*
X185469047Y-113209405D02*
X185469047Y-112790357D01*
X185430952Y-112714167D01*
X185354762Y-112676071D01*
X185202381Y-112676071D01*
X185126190Y-112714167D01*
X185469047Y-113171310D02*
X185392857Y-113209405D01*
X185202381Y-113209405D01*
X185126190Y-113171310D01*
X185088095Y-113095119D01*
X185088095Y-113018929D01*
X185126190Y-112942738D01*
X185202381Y-112904643D01*
X185392857Y-112904643D01*
X185469047Y-112866548D01*
X185811905Y-113171310D02*
X185888095Y-113209405D01*
X186040476Y-113209405D01*
X186116667Y-113171310D01*
X186154762Y-113095119D01*
X186154762Y-113057024D01*
X186116667Y-112980833D01*
X186040476Y-112942738D01*
X185926191Y-112942738D01*
X185850000Y-112904643D01*
X185811905Y-112828452D01*
X185811905Y-112790357D01*
X185850000Y-112714167D01*
X185926191Y-112676071D01*
X186040476Y-112676071D01*
X186116667Y-112714167D01*
X186459524Y-113171310D02*
X186535714Y-113209405D01*
X186688095Y-113209405D01*
X186764286Y-113171310D01*
X186802381Y-113095119D01*
X186802381Y-113057024D01*
X186764286Y-112980833D01*
X186688095Y-112942738D01*
X186573810Y-112942738D01*
X186497619Y-112904643D01*
X186459524Y-112828452D01*
X186459524Y-112790357D01*
X186497619Y-112714167D01*
X186573810Y-112676071D01*
X186688095Y-112676071D01*
X186764286Y-112714167D01*
X187145238Y-113133214D02*
X187183333Y-113171310D01*
X187145238Y-113209405D01*
X187107143Y-113171310D01*
X187145238Y-113133214D01*
X187145238Y-113209405D01*
X187145238Y-112714167D02*
X187183333Y-112752262D01*
X187145238Y-112790357D01*
X187107143Y-112752262D01*
X187145238Y-112714167D01*
X187145238Y-112790357D01*
X188592857Y-113133214D02*
X188554762Y-113171310D01*
X188440476Y-113209405D01*
X188364286Y-113209405D01*
X188250000Y-113171310D01*
X188173809Y-113095119D01*
X188135714Y-113018929D01*
X188097619Y-112866548D01*
X188097619Y-112752262D01*
X188135714Y-112599881D01*
X188173809Y-112523690D01*
X188250000Y-112447500D01*
X188364286Y-112409405D01*
X188440476Y-112409405D01*
X188554762Y-112447500D01*
X188592857Y-112485595D01*
X189278571Y-113209405D02*
X189278571Y-112790357D01*
X189240476Y-112714167D01*
X189164286Y-112676071D01*
X189011905Y-112676071D01*
X188935714Y-112714167D01*
X189278571Y-113171310D02*
X189202381Y-113209405D01*
X189011905Y-113209405D01*
X188935714Y-113171310D01*
X188897619Y-113095119D01*
X188897619Y-113018929D01*
X188935714Y-112942738D01*
X189011905Y-112904643D01*
X189202381Y-112904643D01*
X189278571Y-112866548D01*
X189621429Y-113171310D02*
X189697619Y-113209405D01*
X189850000Y-113209405D01*
X189926191Y-113171310D01*
X189964286Y-113095119D01*
X189964286Y-113057024D01*
X189926191Y-112980833D01*
X189850000Y-112942738D01*
X189735715Y-112942738D01*
X189659524Y-112904643D01*
X189621429Y-112828452D01*
X189621429Y-112790357D01*
X189659524Y-112714167D01*
X189735715Y-112676071D01*
X189850000Y-112676071D01*
X189926191Y-112714167D01*
X190611905Y-113171310D02*
X190535715Y-113209405D01*
X190383334Y-113209405D01*
X190307143Y-113171310D01*
X190269048Y-113095119D01*
X190269048Y-112790357D01*
X190307143Y-112714167D01*
X190383334Y-112676071D01*
X190535715Y-112676071D01*
X190611905Y-112714167D01*
X190650000Y-112790357D01*
X190650000Y-112866548D01*
X190269048Y-112942738D01*
X191488095Y-112409405D02*
X191945238Y-112409405D01*
X191716667Y-113209405D02*
X191716667Y-112409405D01*
X192516667Y-113171310D02*
X192440477Y-113209405D01*
X192288096Y-113209405D01*
X192211905Y-113171310D01*
X192173810Y-113095119D01*
X192173810Y-112790357D01*
X192211905Y-112714167D01*
X192288096Y-112676071D01*
X192440477Y-112676071D01*
X192516667Y-112714167D01*
X192554762Y-112790357D01*
X192554762Y-112866548D01*
X192173810Y-112942738D01*
X192859524Y-113171310D02*
X192935714Y-113209405D01*
X193088095Y-113209405D01*
X193164286Y-113171310D01*
X193202381Y-113095119D01*
X193202381Y-113057024D01*
X193164286Y-112980833D01*
X193088095Y-112942738D01*
X192973810Y-112942738D01*
X192897619Y-112904643D01*
X192859524Y-112828452D01*
X192859524Y-112790357D01*
X192897619Y-112714167D01*
X192973810Y-112676071D01*
X193088095Y-112676071D01*
X193164286Y-112714167D01*
X193430952Y-112676071D02*
X193735714Y-112676071D01*
X193545238Y-112409405D02*
X193545238Y-113095119D01*
X193583333Y-113171310D01*
X193659524Y-113209405D01*
X193735714Y-113209405D01*
D13*
X183207143Y-110421429D02*
X183064286Y-110350000D01*
X182921429Y-110207143D01*
X182707143Y-109992857D01*
X182564286Y-109921429D01*
X182421429Y-109921429D01*
X182492857Y-110278571D02*
X182350000Y-110207143D01*
X182207143Y-110064286D01*
X182135714Y-109778571D01*
X182135714Y-109278571D01*
X182207143Y-108992857D01*
X182350000Y-108850000D01*
X182492857Y-108778571D01*
X182778571Y-108778571D01*
X182921429Y-108850000D01*
X183064286Y-108992857D01*
X183135714Y-109278571D01*
X183135714Y-109778571D01*
X183064286Y-110064286D01*
X182921429Y-110207143D01*
X182778571Y-110278571D01*
X182492857Y-110278571D01*
X184635715Y-110135714D02*
X184564286Y-110207143D01*
X184350000Y-110278571D01*
X184207143Y-110278571D01*
X183992858Y-110207143D01*
X183850000Y-110064286D01*
X183778572Y-109921429D01*
X183707143Y-109635714D01*
X183707143Y-109421429D01*
X183778572Y-109135714D01*
X183850000Y-108992857D01*
X183992858Y-108850000D01*
X184207143Y-108778571D01*
X184350000Y-108778571D01*
X184564286Y-108850000D01*
X184635715Y-108921429D01*
X185278572Y-110135714D02*
X185350000Y-110207143D01*
X185278572Y-110278571D01*
X185207143Y-110207143D01*
X185278572Y-110135714D01*
X185278572Y-110278571D01*
X185278572Y-109350000D02*
X185350000Y-109421429D01*
X185278572Y-109492857D01*
X185207143Y-109421429D01*
X185278572Y-109350000D01*
X185278572Y-109492857D01*
X206828572Y-109307143D02*
X207971429Y-109307143D01*
X212028572Y-109307143D02*
X213171429Y-109307143D01*
X212600000Y-109878571D02*
X212600000Y-108735714D01*
D14*
X216199520Y-102099440D02*
X216600840Y-102099440D01*
X216199520Y-100900560D02*
X216600840Y-100900560D01*
X218800480Y-102099440D02*
X218399160Y-102099440D01*
D15*
X217101220Y-101899720D02*
X217898780Y-101899720D01*
X217101220Y-101100280D02*
X217898780Y-101100280D01*
D14*
X218800480Y-100900560D02*
X218800480Y-102099440D01*
X218800480Y-100900560D02*
X218399160Y-100900560D01*
X216199520Y-100900560D02*
X216199520Y-102099440D01*
X181800480Y-100900560D02*
X181399160Y-100900560D01*
X181800480Y-102099440D02*
X181399160Y-102099440D01*
X179199520Y-100900560D02*
X179600840Y-100900560D01*
D15*
X180898780Y-101100280D02*
X180101220Y-101100280D01*
X180898780Y-101899720D02*
X180101220Y-101899720D01*
D14*
X179199520Y-102099440D02*
X179199520Y-100900560D01*
X179199520Y-102099440D02*
X179600840Y-102099440D01*
X181800480Y-102099440D02*
X181800480Y-100900560D01*
X218800480Y-121900560D02*
X218399160Y-121900560D01*
X218800480Y-123099440D02*
X218399160Y-123099440D01*
X216199520Y-121900560D02*
X216600840Y-121900560D01*
D15*
X217898780Y-122100280D02*
X217101220Y-122100280D01*
X217898780Y-122899720D02*
X217101220Y-122899720D01*
D14*
X216199520Y-123099440D02*
X216199520Y-121900560D01*
X216199520Y-123099440D02*
X216600840Y-123099440D01*
X218800480Y-123099440D02*
X218800480Y-121900560D01*
X179199520Y-123099440D02*
X179600840Y-123099440D01*
X179199520Y-121900560D02*
X179600840Y-121900560D01*
X181800480Y-123099440D02*
X181399160Y-123099440D01*
D15*
X180101220Y-122899720D02*
X180898780Y-122899720D01*
X180101220Y-122100280D02*
X180898780Y-122100280D01*
D14*
X181800480Y-121900560D02*
X181800480Y-123099440D01*
X181800480Y-121900560D02*
X181399160Y-121900560D01*
X179199520Y-121900560D02*
X179199520Y-123099440D01*
D16*
X173200000Y-107800000D02*
X173600000Y-107800000D01*
X173600000Y-107800000D02*
X173700000Y-107800000D01*
X173200000Y-107500000D02*
X173200000Y-108100000D01*
X172200000Y-107800000D02*
X172800000Y-107800000D01*
X172800000Y-107800000D02*
X172800000Y-107500000D01*
X172800000Y-107500000D02*
X173100000Y-107800000D01*
X173100000Y-107800000D02*
X172800000Y-108100000D01*
X172800000Y-108100000D02*
X172800000Y-107800000D01*
X173000000Y-105000000D02*
X171500000Y-105000000D01*
X171500000Y-105000000D02*
X171500000Y-107000000D01*
X171500000Y-107000000D02*
X174500000Y-107000000D01*
X174500000Y-107000000D02*
X174500000Y-105000000D01*
X174500000Y-105000000D02*
X173000000Y-105000000D01*
X173200000Y-119800000D02*
X173600000Y-119800000D01*
X173600000Y-119800000D02*
X173700000Y-119800000D01*
X173200000Y-119500000D02*
X173200000Y-120100000D01*
X172200000Y-119800000D02*
X172800000Y-119800000D01*
X172800000Y-119800000D02*
X172800000Y-119500000D01*
X172800000Y-119500000D02*
X173100000Y-119800000D01*
X173100000Y-119800000D02*
X172800000Y-120100000D01*
X172800000Y-120100000D02*
X172800000Y-119800000D01*
X173000000Y-117000000D02*
X171500000Y-117000000D01*
X171500000Y-117000000D02*
X171500000Y-119000000D01*
X171500000Y-119000000D02*
X174500000Y-119000000D01*
X174500000Y-119000000D02*
X174500000Y-117000000D01*
X174500000Y-117000000D02*
X173000000Y-117000000D01*
X224800000Y-104200000D02*
X224400000Y-104200000D01*
X224400000Y-104200000D02*
X224300000Y-104200000D01*
X224800000Y-104500000D02*
X224800000Y-103900000D01*
X225800000Y-104200000D02*
X225200000Y-104200000D01*
X225200000Y-104200000D02*
X225200000Y-104500000D01*
X225200000Y-104500000D02*
X224900000Y-104200000D01*
X224900000Y-104200000D02*
X225200000Y-103900000D01*
X225200000Y-103900000D02*
X225200000Y-104200000D01*
X225000000Y-107000000D02*
X226500000Y-107000000D01*
X226500000Y-107000000D02*
X226500000Y-105000000D01*
X226500000Y-105000000D02*
X223500000Y-105000000D01*
X223500000Y-105000000D02*
X223500000Y-107000000D01*
X223500000Y-107000000D02*
X225000000Y-107000000D01*
X224800000Y-116200000D02*
X224400000Y-116200000D01*
X224400000Y-116200000D02*
X224300000Y-116200000D01*
X224800000Y-116500000D02*
X224800000Y-115900000D01*
X225800000Y-116200000D02*
X225200000Y-116200000D01*
X225200000Y-116200000D02*
X225200000Y-116500000D01*
X225200000Y-116500000D02*
X224900000Y-116200000D01*
X224900000Y-116200000D02*
X225200000Y-115900000D01*
X225200000Y-115900000D02*
X225200000Y-116200000D01*
X225000000Y-119000000D02*
X226500000Y-119000000D01*
X226500000Y-119000000D02*
X226500000Y-117000000D01*
X226500000Y-117000000D02*
X223500000Y-117000000D01*
X223500000Y-117000000D02*
X223500000Y-119000000D01*
X223500000Y-119000000D02*
X225000000Y-119000000D01*
X183200000Y-107800000D02*
X183600000Y-107800000D01*
X183600000Y-107800000D02*
X183700000Y-107800000D01*
X183200000Y-107500000D02*
X183200000Y-108100000D01*
X182200000Y-107800000D02*
X182800000Y-107800000D01*
X182800000Y-107800000D02*
X182800000Y-107500000D01*
X182800000Y-107500000D02*
X183100000Y-107800000D01*
X183100000Y-107800000D02*
X182800000Y-108100000D01*
X182800000Y-108100000D02*
X182800000Y-107800000D01*
X183000000Y-105000000D02*
X181500000Y-105000000D01*
X181500000Y-105000000D02*
X181500000Y-107000000D01*
X181500000Y-107000000D02*
X184500000Y-107000000D01*
X184500000Y-107000000D02*
X184500000Y-105000000D01*
X184500000Y-105000000D02*
X183000000Y-105000000D01*
X183200000Y-119800000D02*
X183600000Y-119800000D01*
X183600000Y-119800000D02*
X183700000Y-119800000D01*
X183200000Y-119500000D02*
X183200000Y-120100000D01*
X182200000Y-119800000D02*
X182800000Y-119800000D01*
X182800000Y-119800000D02*
X182800000Y-119500000D01*
X182800000Y-119500000D02*
X183100000Y-119800000D01*
X183100000Y-119800000D02*
X182800000Y-120100000D01*
X182800000Y-120100000D02*
X182800000Y-119800000D01*
X183000000Y-117000000D02*
X181500000Y-117000000D01*
X181500000Y-117000000D02*
X181500000Y-119000000D01*
X181500000Y-119000000D02*
X184500000Y-119000000D01*
X184500000Y-119000000D02*
X184500000Y-117000000D01*
X184500000Y-117000000D02*
X183000000Y-117000000D01*
X214800000Y-104200000D02*
X214400000Y-104200000D01*
X214400000Y-104200000D02*
X214300000Y-104200000D01*
X214800000Y-104500000D02*
X214800000Y-103900000D01*
X215800000Y-104200000D02*
X215200000Y-104200000D01*
X215200000Y-104200000D02*
X215200000Y-104500000D01*
X215200000Y-104500000D02*
X214900000Y-104200000D01*
X214900000Y-104200000D02*
X215200000Y-103900000D01*
X215200000Y-103900000D02*
X215200000Y-104200000D01*
X215000000Y-107000000D02*
X216500000Y-107000000D01*
X216500000Y-107000000D02*
X216500000Y-105000000D01*
X216500000Y-105000000D02*
X213500000Y-105000000D01*
X213500000Y-105000000D02*
X213500000Y-107000000D01*
X213500000Y-107000000D02*
X215000000Y-107000000D01*
X215000000Y-116200000D02*
X214600000Y-116200000D01*
X214600000Y-116200000D02*
X214500000Y-116200000D01*
X215000000Y-116500000D02*
X215000000Y-115900000D01*
X216000000Y-116200000D02*
X215400000Y-116200000D01*
X215400000Y-116200000D02*
X215400000Y-116500000D01*
X215400000Y-116500000D02*
X215100000Y-116200000D01*
X215100000Y-116200000D02*
X215400000Y-115900000D01*
X215400000Y-115900000D02*
X215400000Y-116200000D01*
X215200000Y-119000000D02*
X216700000Y-119000000D01*
X216700000Y-119000000D02*
X216700000Y-117000000D01*
X216700000Y-117000000D02*
X213700000Y-117000000D01*
X213700000Y-117000000D02*
X213700000Y-119000000D01*
X213700000Y-119000000D02*
X215200000Y-119000000D01*
X193200000Y-107800000D02*
X193600000Y-107800000D01*
X193600000Y-107800000D02*
X193700000Y-107800000D01*
X193200000Y-107500000D02*
X193200000Y-108100000D01*
X192200000Y-107800000D02*
X192800000Y-107800000D01*
X192800000Y-107800000D02*
X192800000Y-107500000D01*
X192800000Y-107500000D02*
X193100000Y-107800000D01*
X193100000Y-107800000D02*
X192800000Y-108100000D01*
X192800000Y-108100000D02*
X192800000Y-107800000D01*
X193000000Y-105000000D02*
X191500000Y-105000000D01*
X191500000Y-105000000D02*
X191500000Y-107000000D01*
X191500000Y-107000000D02*
X194500000Y-107000000D01*
X194500000Y-107000000D02*
X194500000Y-105000000D01*
X194500000Y-105000000D02*
X193000000Y-105000000D01*
X193200000Y-119800000D02*
X193600000Y-119800000D01*
X193600000Y-119800000D02*
X193700000Y-119800000D01*
X193200000Y-119500000D02*
X193200000Y-120100000D01*
X192200000Y-119800000D02*
X192800000Y-119800000D01*
X192800000Y-119800000D02*
X192800000Y-119500000D01*
X192800000Y-119500000D02*
X193100000Y-119800000D01*
X193100000Y-119800000D02*
X192800000Y-120100000D01*
X192800000Y-120100000D02*
X192800000Y-119800000D01*
X193000000Y-117000000D02*
X191500000Y-117000000D01*
X191500000Y-117000000D02*
X191500000Y-119000000D01*
X191500000Y-119000000D02*
X194500000Y-119000000D01*
X194500000Y-119000000D02*
X194500000Y-117000000D01*
X194500000Y-117000000D02*
X193000000Y-117000000D01*
X204800000Y-104200000D02*
X204400000Y-104200000D01*
X204400000Y-104200000D02*
X204300000Y-104200000D01*
X204800000Y-104500000D02*
X204800000Y-103900000D01*
X205800000Y-104200000D02*
X205200000Y-104200000D01*
X205200000Y-104200000D02*
X205200000Y-104500000D01*
X205200000Y-104500000D02*
X204900000Y-104200000D01*
X204900000Y-104200000D02*
X205200000Y-103900000D01*
X205200000Y-103900000D02*
X205200000Y-104200000D01*
X205000000Y-107000000D02*
X206500000Y-107000000D01*
X206500000Y-107000000D02*
X206500000Y-105000000D01*
X206500000Y-105000000D02*
X203500000Y-105000000D01*
X203500000Y-105000000D02*
X203500000Y-107000000D01*
X203500000Y-107000000D02*
X205000000Y-107000000D01*
X204800000Y-116200000D02*
X204400000Y-116200000D01*
X204400000Y-116200000D02*
X204300000Y-116200000D01*
X204800000Y-116500000D02*
X204800000Y-115900000D01*
X205800000Y-116200000D02*
X205200000Y-116200000D01*
X205200000Y-116200000D02*
X205200000Y-116500000D01*
X205200000Y-116500000D02*
X204900000Y-116200000D01*
X204900000Y-116200000D02*
X205200000Y-115900000D01*
X205200000Y-115900000D02*
X205200000Y-116200000D01*
X205000000Y-119000000D02*
X206500000Y-119000000D01*
X206500000Y-119000000D02*
X206500000Y-117000000D01*
X206500000Y-117000000D02*
X203500000Y-117000000D01*
X203500000Y-117000000D02*
X203500000Y-119000000D01*
X203500000Y-119000000D02*
X205000000Y-119000000D01*
D17*
X215714086Y-101599906D02*
X215742630Y-101628451D01*
X215771175Y-101714085D01*
X215771175Y-101771175D01*
X215742630Y-101856809D01*
X215685541Y-101913898D01*
X215628451Y-101942443D01*
X215514272Y-101970988D01*
X215428638Y-101970988D01*
X215314459Y-101942443D01*
X215257370Y-101913898D01*
X215200280Y-101856809D01*
X215171735Y-101771175D01*
X215171735Y-101714085D01*
X215200280Y-101628451D01*
X215228825Y-101599906D01*
X215771175Y-101029011D02*
X215771175Y-101371548D01*
X215771175Y-101200279D02*
X215171735Y-101200279D01*
X215257370Y-101257369D01*
X215314459Y-101314458D01*
X215343004Y-101371548D01*
D18*
X217635588Y-102763107D02*
X217635588Y-102934375D01*
X217635588Y-102848741D02*
X217335868Y-102848741D01*
X217378685Y-102877286D01*
X217407230Y-102905831D01*
X217421502Y-102934375D01*
X217435774Y-102506204D02*
X217635588Y-102506204D01*
X217435774Y-102634655D02*
X217592770Y-102634655D01*
X217621315Y-102620383D01*
X217635588Y-102591838D01*
X217635588Y-102549021D01*
X217621315Y-102520476D01*
X217607043Y-102506204D01*
X217335868Y-102078033D02*
X217335868Y-102049488D01*
X217350140Y-102020943D01*
X217364412Y-102006671D01*
X217392957Y-101992398D01*
X217450047Y-101978126D01*
X217521409Y-101978126D01*
X217578498Y-101992398D01*
X217607043Y-102006671D01*
X217621315Y-102020943D01*
X217635588Y-102049488D01*
X217635588Y-102078033D01*
X217621315Y-102106577D01*
X217607043Y-102120850D01*
X217578498Y-102135122D01*
X217521409Y-102149394D01*
X217450047Y-102149394D01*
X217392957Y-102135122D01*
X217364412Y-102120850D01*
X217350140Y-102106577D01*
X217335868Y-102078033D01*
X217335868Y-101721223D02*
X217335868Y-101778312D01*
X217350140Y-101806857D01*
X217364412Y-101821129D01*
X217407230Y-101849674D01*
X217464319Y-101863946D01*
X217578498Y-101863946D01*
X217607043Y-101849674D01*
X217621315Y-101835402D01*
X217635588Y-101806857D01*
X217635588Y-101749767D01*
X217621315Y-101721223D01*
X217607043Y-101706950D01*
X217578498Y-101692678D01*
X217507136Y-101692678D01*
X217478591Y-101706950D01*
X217464319Y-101721223D01*
X217450047Y-101749767D01*
X217450047Y-101806857D01*
X217464319Y-101835402D01*
X217478591Y-101849674D01*
X217507136Y-101863946D01*
X217335868Y-101507137D02*
X217335868Y-101478592D01*
X217350140Y-101450047D01*
X217364412Y-101435775D01*
X217392957Y-101421502D01*
X217450047Y-101407230D01*
X217521409Y-101407230D01*
X217578498Y-101421502D01*
X217607043Y-101435775D01*
X217621315Y-101450047D01*
X217635588Y-101478592D01*
X217635588Y-101507137D01*
X217621315Y-101535681D01*
X217607043Y-101549954D01*
X217578498Y-101564226D01*
X217521409Y-101578498D01*
X217450047Y-101578498D01*
X217392957Y-101564226D01*
X217364412Y-101549954D01*
X217350140Y-101535681D01*
X217335868Y-101507137D01*
X217335868Y-101307323D02*
X217335868Y-101121782D01*
X217450047Y-101221689D01*
X217450047Y-101178871D01*
X217464319Y-101150327D01*
X217478591Y-101136054D01*
X217507136Y-101121782D01*
X217578498Y-101121782D01*
X217607043Y-101136054D01*
X217621315Y-101150327D01*
X217635588Y-101178871D01*
X217635588Y-101264506D01*
X217621315Y-101293050D01*
X217607043Y-101307323D01*
X217335868Y-100622248D02*
X217335868Y-100764972D01*
X217478591Y-100779244D01*
X217464319Y-100764972D01*
X217450047Y-100736427D01*
X217450047Y-100665065D01*
X217464319Y-100636521D01*
X217478591Y-100622248D01*
X217507136Y-100607976D01*
X217578498Y-100607976D01*
X217607043Y-100622248D01*
X217621315Y-100636521D01*
X217635588Y-100665065D01*
X217635588Y-100736427D01*
X217621315Y-100764972D01*
X217607043Y-100779244D01*
X217335868Y-100422435D02*
X217335868Y-100393890D01*
X217350140Y-100365345D01*
X217364412Y-100351073D01*
X217392957Y-100336800D01*
X217450047Y-100322528D01*
X217521409Y-100322528D01*
X217578498Y-100336800D01*
X217607043Y-100351073D01*
X217621315Y-100365345D01*
X217635588Y-100393890D01*
X217635588Y-100422435D01*
X217621315Y-100450979D01*
X217607043Y-100465252D01*
X217578498Y-100479524D01*
X217521409Y-100493796D01*
X217450047Y-100493796D01*
X217392957Y-100479524D01*
X217364412Y-100465252D01*
X217350140Y-100450979D01*
X217335868Y-100422435D01*
X217335868Y-100236893D02*
X217635588Y-100136987D01*
X217335868Y-100037080D01*
D17*
X182714086Y-101599906D02*
X182742630Y-101628451D01*
X182771175Y-101714085D01*
X182771175Y-101771175D01*
X182742630Y-101856809D01*
X182685541Y-101913898D01*
X182628451Y-101942443D01*
X182514272Y-101970988D01*
X182428638Y-101970988D01*
X182314459Y-101942443D01*
X182257370Y-101913898D01*
X182200280Y-101856809D01*
X182171735Y-101771175D01*
X182171735Y-101714085D01*
X182200280Y-101628451D01*
X182228825Y-101599906D01*
X182228825Y-101371548D02*
X182200280Y-101343003D01*
X182171735Y-101285914D01*
X182171735Y-101143190D01*
X182200280Y-101086100D01*
X182228825Y-101057556D01*
X182285914Y-101029011D01*
X182343004Y-101029011D01*
X182428638Y-101057556D01*
X182771175Y-101400093D01*
X182771175Y-101029011D01*
D18*
X180635588Y-102763107D02*
X180635588Y-102934375D01*
X180635588Y-102848741D02*
X180335868Y-102848741D01*
X180378685Y-102877286D01*
X180407230Y-102905831D01*
X180421502Y-102934375D01*
X180435774Y-102506204D02*
X180635588Y-102506204D01*
X180435774Y-102634655D02*
X180592770Y-102634655D01*
X180621315Y-102620383D01*
X180635588Y-102591838D01*
X180635588Y-102549021D01*
X180621315Y-102520476D01*
X180607043Y-102506204D01*
X180335868Y-102078033D02*
X180335868Y-102049488D01*
X180350140Y-102020943D01*
X180364412Y-102006671D01*
X180392957Y-101992398D01*
X180450047Y-101978126D01*
X180521409Y-101978126D01*
X180578498Y-101992398D01*
X180607043Y-102006671D01*
X180621315Y-102020943D01*
X180635588Y-102049488D01*
X180635588Y-102078033D01*
X180621315Y-102106577D01*
X180607043Y-102120850D01*
X180578498Y-102135122D01*
X180521409Y-102149394D01*
X180450047Y-102149394D01*
X180392957Y-102135122D01*
X180364412Y-102120850D01*
X180350140Y-102106577D01*
X180335868Y-102078033D01*
X180335868Y-101721223D02*
X180335868Y-101778312D01*
X180350140Y-101806857D01*
X180364412Y-101821129D01*
X180407230Y-101849674D01*
X180464319Y-101863946D01*
X180578498Y-101863946D01*
X180607043Y-101849674D01*
X180621315Y-101835402D01*
X180635588Y-101806857D01*
X180635588Y-101749767D01*
X180621315Y-101721223D01*
X180607043Y-101706950D01*
X180578498Y-101692678D01*
X180507136Y-101692678D01*
X180478591Y-101706950D01*
X180464319Y-101721223D01*
X180450047Y-101749767D01*
X180450047Y-101806857D01*
X180464319Y-101835402D01*
X180478591Y-101849674D01*
X180507136Y-101863946D01*
X180335868Y-101507137D02*
X180335868Y-101478592D01*
X180350140Y-101450047D01*
X180364412Y-101435775D01*
X180392957Y-101421502D01*
X180450047Y-101407230D01*
X180521409Y-101407230D01*
X180578498Y-101421502D01*
X180607043Y-101435775D01*
X180621315Y-101450047D01*
X180635588Y-101478592D01*
X180635588Y-101507137D01*
X180621315Y-101535681D01*
X180607043Y-101549954D01*
X180578498Y-101564226D01*
X180521409Y-101578498D01*
X180450047Y-101578498D01*
X180392957Y-101564226D01*
X180364412Y-101549954D01*
X180350140Y-101535681D01*
X180335868Y-101507137D01*
X180335868Y-101307323D02*
X180335868Y-101121782D01*
X180450047Y-101221689D01*
X180450047Y-101178871D01*
X180464319Y-101150327D01*
X180478591Y-101136054D01*
X180507136Y-101121782D01*
X180578498Y-101121782D01*
X180607043Y-101136054D01*
X180621315Y-101150327D01*
X180635588Y-101178871D01*
X180635588Y-101264506D01*
X180621315Y-101293050D01*
X180607043Y-101307323D01*
X180335868Y-100622248D02*
X180335868Y-100764972D01*
X180478591Y-100779244D01*
X180464319Y-100764972D01*
X180450047Y-100736427D01*
X180450047Y-100665065D01*
X180464319Y-100636521D01*
X180478591Y-100622248D01*
X180507136Y-100607976D01*
X180578498Y-100607976D01*
X180607043Y-100622248D01*
X180621315Y-100636521D01*
X180635588Y-100665065D01*
X180635588Y-100736427D01*
X180621315Y-100764972D01*
X180607043Y-100779244D01*
X180335868Y-100422435D02*
X180335868Y-100393890D01*
X180350140Y-100365345D01*
X180364412Y-100351073D01*
X180392957Y-100336800D01*
X180450047Y-100322528D01*
X180521409Y-100322528D01*
X180578498Y-100336800D01*
X180607043Y-100351073D01*
X180621315Y-100365345D01*
X180635588Y-100393890D01*
X180635588Y-100422435D01*
X180621315Y-100450979D01*
X180607043Y-100465252D01*
X180578498Y-100479524D01*
X180521409Y-100493796D01*
X180450047Y-100493796D01*
X180392957Y-100479524D01*
X180364412Y-100465252D01*
X180350140Y-100450979D01*
X180335868Y-100422435D01*
X180335868Y-100236893D02*
X180635588Y-100136987D01*
X180335868Y-100037080D01*
D17*
X219714086Y-122599906D02*
X219742630Y-122628451D01*
X219771175Y-122714085D01*
X219771175Y-122771175D01*
X219742630Y-122856809D01*
X219685541Y-122913898D01*
X219628451Y-122942443D01*
X219514272Y-122970988D01*
X219428638Y-122970988D01*
X219314459Y-122942443D01*
X219257370Y-122913898D01*
X219200280Y-122856809D01*
X219171735Y-122771175D01*
X219171735Y-122714085D01*
X219200280Y-122628451D01*
X219228825Y-122599906D01*
X219171735Y-122400093D02*
X219171735Y-122029011D01*
X219400093Y-122228824D01*
X219400093Y-122143190D01*
X219428638Y-122086100D01*
X219457183Y-122057556D01*
X219514272Y-122029011D01*
X219656996Y-122029011D01*
X219714086Y-122057556D01*
X219742630Y-122086100D01*
X219771175Y-122143190D01*
X219771175Y-122314458D01*
X219742630Y-122371548D01*
X219714086Y-122400093D01*
D18*
X217635588Y-123763107D02*
X217635588Y-123934375D01*
X217635588Y-123848741D02*
X217335868Y-123848741D01*
X217378685Y-123877286D01*
X217407230Y-123905831D01*
X217421502Y-123934375D01*
X217435774Y-123506204D02*
X217635588Y-123506204D01*
X217435774Y-123634655D02*
X217592770Y-123634655D01*
X217621315Y-123620383D01*
X217635588Y-123591838D01*
X217635588Y-123549021D01*
X217621315Y-123520476D01*
X217607043Y-123506204D01*
X217335868Y-123078033D02*
X217335868Y-123049488D01*
X217350140Y-123020943D01*
X217364412Y-123006671D01*
X217392957Y-122992398D01*
X217450047Y-122978126D01*
X217521409Y-122978126D01*
X217578498Y-122992398D01*
X217607043Y-123006671D01*
X217621315Y-123020943D01*
X217635588Y-123049488D01*
X217635588Y-123078033D01*
X217621315Y-123106577D01*
X217607043Y-123120850D01*
X217578498Y-123135122D01*
X217521409Y-123149394D01*
X217450047Y-123149394D01*
X217392957Y-123135122D01*
X217364412Y-123120850D01*
X217350140Y-123106577D01*
X217335868Y-123078033D01*
X217335868Y-122721223D02*
X217335868Y-122778312D01*
X217350140Y-122806857D01*
X217364412Y-122821129D01*
X217407230Y-122849674D01*
X217464319Y-122863946D01*
X217578498Y-122863946D01*
X217607043Y-122849674D01*
X217621315Y-122835402D01*
X217635588Y-122806857D01*
X217635588Y-122749767D01*
X217621315Y-122721223D01*
X217607043Y-122706950D01*
X217578498Y-122692678D01*
X217507136Y-122692678D01*
X217478591Y-122706950D01*
X217464319Y-122721223D01*
X217450047Y-122749767D01*
X217450047Y-122806857D01*
X217464319Y-122835402D01*
X217478591Y-122849674D01*
X217507136Y-122863946D01*
X217335868Y-122507137D02*
X217335868Y-122478592D01*
X217350140Y-122450047D01*
X217364412Y-122435775D01*
X217392957Y-122421502D01*
X217450047Y-122407230D01*
X217521409Y-122407230D01*
X217578498Y-122421502D01*
X217607043Y-122435775D01*
X217621315Y-122450047D01*
X217635588Y-122478592D01*
X217635588Y-122507137D01*
X217621315Y-122535681D01*
X217607043Y-122549954D01*
X217578498Y-122564226D01*
X217521409Y-122578498D01*
X217450047Y-122578498D01*
X217392957Y-122564226D01*
X217364412Y-122549954D01*
X217350140Y-122535681D01*
X217335868Y-122507137D01*
X217335868Y-122307323D02*
X217335868Y-122121782D01*
X217450047Y-122221689D01*
X217450047Y-122178871D01*
X217464319Y-122150327D01*
X217478591Y-122136054D01*
X217507136Y-122121782D01*
X217578498Y-122121782D01*
X217607043Y-122136054D01*
X217621315Y-122150327D01*
X217635588Y-122178871D01*
X217635588Y-122264506D01*
X217621315Y-122293050D01*
X217607043Y-122307323D01*
X217335868Y-121622248D02*
X217335868Y-121764972D01*
X217478591Y-121779244D01*
X217464319Y-121764972D01*
X217450047Y-121736427D01*
X217450047Y-121665065D01*
X217464319Y-121636521D01*
X217478591Y-121622248D01*
X217507136Y-121607976D01*
X217578498Y-121607976D01*
X217607043Y-121622248D01*
X217621315Y-121636521D01*
X217635588Y-121665065D01*
X217635588Y-121736427D01*
X217621315Y-121764972D01*
X217607043Y-121779244D01*
X217335868Y-121422435D02*
X217335868Y-121393890D01*
X217350140Y-121365345D01*
X217364412Y-121351073D01*
X217392957Y-121336800D01*
X217450047Y-121322528D01*
X217521409Y-121322528D01*
X217578498Y-121336800D01*
X217607043Y-121351073D01*
X217621315Y-121365345D01*
X217635588Y-121393890D01*
X217635588Y-121422435D01*
X217621315Y-121450979D01*
X217607043Y-121465252D01*
X217578498Y-121479524D01*
X217521409Y-121493796D01*
X217450047Y-121493796D01*
X217392957Y-121479524D01*
X217364412Y-121465252D01*
X217350140Y-121450979D01*
X217335868Y-121422435D01*
X217335868Y-121236893D02*
X217635588Y-121136987D01*
X217335868Y-121037080D01*
D17*
X178714086Y-122599906D02*
X178742630Y-122628451D01*
X178771175Y-122714085D01*
X178771175Y-122771175D01*
X178742630Y-122856809D01*
X178685541Y-122913898D01*
X178628451Y-122942443D01*
X178514272Y-122970988D01*
X178428638Y-122970988D01*
X178314459Y-122942443D01*
X178257370Y-122913898D01*
X178200280Y-122856809D01*
X178171735Y-122771175D01*
X178171735Y-122714085D01*
X178200280Y-122628451D01*
X178228825Y-122599906D01*
X178371549Y-122086100D02*
X178771175Y-122086100D01*
X178143190Y-122228824D02*
X178571362Y-122371548D01*
X178571362Y-122000466D01*
D18*
X180635588Y-123763107D02*
X180635588Y-123934375D01*
X180635588Y-123848741D02*
X180335868Y-123848741D01*
X180378685Y-123877286D01*
X180407230Y-123905831D01*
X180421502Y-123934375D01*
X180435774Y-123506204D02*
X180635588Y-123506204D01*
X180435774Y-123634655D02*
X180592770Y-123634655D01*
X180621315Y-123620383D01*
X180635588Y-123591838D01*
X180635588Y-123549021D01*
X180621315Y-123520476D01*
X180607043Y-123506204D01*
X180335868Y-123078033D02*
X180335868Y-123049488D01*
X180350140Y-123020943D01*
X180364412Y-123006671D01*
X180392957Y-122992398D01*
X180450047Y-122978126D01*
X180521409Y-122978126D01*
X180578498Y-122992398D01*
X180607043Y-123006671D01*
X180621315Y-123020943D01*
X180635588Y-123049488D01*
X180635588Y-123078033D01*
X180621315Y-123106577D01*
X180607043Y-123120850D01*
X180578498Y-123135122D01*
X180521409Y-123149394D01*
X180450047Y-123149394D01*
X180392957Y-123135122D01*
X180364412Y-123120850D01*
X180350140Y-123106577D01*
X180335868Y-123078033D01*
X180335868Y-122721223D02*
X180335868Y-122778312D01*
X180350140Y-122806857D01*
X180364412Y-122821129D01*
X180407230Y-122849674D01*
X180464319Y-122863946D01*
X180578498Y-122863946D01*
X180607043Y-122849674D01*
X180621315Y-122835402D01*
X180635588Y-122806857D01*
X180635588Y-122749767D01*
X180621315Y-122721223D01*
X180607043Y-122706950D01*
X180578498Y-122692678D01*
X180507136Y-122692678D01*
X180478591Y-122706950D01*
X180464319Y-122721223D01*
X180450047Y-122749767D01*
X180450047Y-122806857D01*
X180464319Y-122835402D01*
X180478591Y-122849674D01*
X180507136Y-122863946D01*
X180335868Y-122507137D02*
X180335868Y-122478592D01*
X180350140Y-122450047D01*
X180364412Y-122435775D01*
X180392957Y-122421502D01*
X180450047Y-122407230D01*
X180521409Y-122407230D01*
X180578498Y-122421502D01*
X180607043Y-122435775D01*
X180621315Y-122450047D01*
X180635588Y-122478592D01*
X180635588Y-122507137D01*
X180621315Y-122535681D01*
X180607043Y-122549954D01*
X180578498Y-122564226D01*
X180521409Y-122578498D01*
X180450047Y-122578498D01*
X180392957Y-122564226D01*
X180364412Y-122549954D01*
X180350140Y-122535681D01*
X180335868Y-122507137D01*
X180335868Y-122307323D02*
X180335868Y-122121782D01*
X180450047Y-122221689D01*
X180450047Y-122178871D01*
X180464319Y-122150327D01*
X180478591Y-122136054D01*
X180507136Y-122121782D01*
X180578498Y-122121782D01*
X180607043Y-122136054D01*
X180621315Y-122150327D01*
X180635588Y-122178871D01*
X180635588Y-122264506D01*
X180621315Y-122293050D01*
X180607043Y-122307323D01*
X180335868Y-121622248D02*
X180335868Y-121764972D01*
X180478591Y-121779244D01*
X180464319Y-121764972D01*
X180450047Y-121736427D01*
X180450047Y-121665065D01*
X180464319Y-121636521D01*
X180478591Y-121622248D01*
X180507136Y-121607976D01*
X180578498Y-121607976D01*
X180607043Y-121622248D01*
X180621315Y-121636521D01*
X180635588Y-121665065D01*
X180635588Y-121736427D01*
X180621315Y-121764972D01*
X180607043Y-121779244D01*
X180335868Y-121422435D02*
X180335868Y-121393890D01*
X180350140Y-121365345D01*
X180364412Y-121351073D01*
X180392957Y-121336800D01*
X180450047Y-121322528D01*
X180521409Y-121322528D01*
X180578498Y-121336800D01*
X180607043Y-121351073D01*
X180621315Y-121365345D01*
X180635588Y-121393890D01*
X180635588Y-121422435D01*
X180621315Y-121450979D01*
X180607043Y-121465252D01*
X180578498Y-121479524D01*
X180521409Y-121493796D01*
X180450047Y-121493796D01*
X180392957Y-121479524D01*
X180364412Y-121465252D01*
X180350140Y-121450979D01*
X180335868Y-121422435D01*
X180335868Y-121236893D02*
X180635588Y-121136987D01*
X180335868Y-121037080D01*
D19*
X172690477Y-104826190D02*
X172452382Y-104826190D01*
X172452382Y-104326190D01*
X173071429Y-104826190D02*
X173071429Y-104564286D01*
X173047620Y-104516667D01*
X173000001Y-104492857D01*
X172904763Y-104492857D01*
X172857144Y-104516667D01*
X173071429Y-104802381D02*
X173023810Y-104826190D01*
X172904763Y-104826190D01*
X172857144Y-104802381D01*
X172833334Y-104754762D01*
X172833334Y-104707143D01*
X172857144Y-104659524D01*
X172904763Y-104635714D01*
X173023810Y-104635714D01*
X173071429Y-104611905D01*
X173571429Y-104826190D02*
X173285715Y-104826190D01*
X173428572Y-104826190D02*
X173428572Y-104326190D01*
X173380953Y-104397619D01*
X173333334Y-104445238D01*
X173285715Y-104469048D01*
D16*
X170338095Y-107742857D02*
X171861905Y-107742857D01*
X171100000Y-108504762D02*
X171100000Y-106980952D01*
X175138095Y-107742857D02*
X176661905Y-107742857D01*
D19*
X172690477Y-116826190D02*
X172452382Y-116826190D01*
X172452382Y-116326190D01*
X173071429Y-116826190D02*
X173071429Y-116564286D01*
X173047620Y-116516667D01*
X173000001Y-116492857D01*
X172904763Y-116492857D01*
X172857144Y-116516667D01*
X173071429Y-116802381D02*
X173023810Y-116826190D01*
X172904763Y-116826190D01*
X172857144Y-116802381D01*
X172833334Y-116754762D01*
X172833334Y-116707143D01*
X172857144Y-116659524D01*
X172904763Y-116635714D01*
X173023810Y-116635714D01*
X173071429Y-116611905D01*
X173285715Y-116373810D02*
X173309525Y-116350000D01*
X173357144Y-116326190D01*
X173476191Y-116326190D01*
X173523810Y-116350000D01*
X173547620Y-116373810D01*
X173571429Y-116421429D01*
X173571429Y-116469048D01*
X173547620Y-116540476D01*
X173261906Y-116826190D01*
X173571429Y-116826190D01*
D16*
X170338095Y-119742857D02*
X171861905Y-119742857D01*
X171100000Y-120504762D02*
X171100000Y-118980952D01*
X175138095Y-119742857D02*
X176661905Y-119742857D01*
D19*
X224690477Y-107626190D02*
X224452382Y-107626190D01*
X224452382Y-107126190D01*
X225071429Y-107626190D02*
X225071429Y-107364286D01*
X225047620Y-107316667D01*
X225000001Y-107292857D01*
X224904763Y-107292857D01*
X224857144Y-107316667D01*
X225071429Y-107602381D02*
X225023810Y-107626190D01*
X224904763Y-107626190D01*
X224857144Y-107602381D01*
X224833334Y-107554762D01*
X224833334Y-107507143D01*
X224857144Y-107459524D01*
X224904763Y-107435714D01*
X225023810Y-107435714D01*
X225071429Y-107411905D01*
X225261906Y-107126190D02*
X225571429Y-107126190D01*
X225404763Y-107316667D01*
X225476191Y-107316667D01*
X225523810Y-107340476D01*
X225547620Y-107364286D01*
X225571429Y-107411905D01*
X225571429Y-107530952D01*
X225547620Y-107578571D01*
X225523810Y-107602381D01*
X225476191Y-107626190D01*
X225333334Y-107626190D01*
X225285715Y-107602381D01*
X225261906Y-107578571D01*
D16*
X226138095Y-104542857D02*
X227661905Y-104542857D01*
X226900000Y-105304762D02*
X226900000Y-103780952D01*
X221338095Y-104542857D02*
X222861905Y-104542857D01*
D19*
X224690477Y-119626190D02*
X224452382Y-119626190D01*
X224452382Y-119126190D01*
X225071429Y-119626190D02*
X225071429Y-119364286D01*
X225047620Y-119316667D01*
X225000001Y-119292857D01*
X224904763Y-119292857D01*
X224857144Y-119316667D01*
X225071429Y-119602381D02*
X225023810Y-119626190D01*
X224904763Y-119626190D01*
X224857144Y-119602381D01*
X224833334Y-119554762D01*
X224833334Y-119507143D01*
X224857144Y-119459524D01*
X224904763Y-119435714D01*
X225023810Y-119435714D01*
X225071429Y-119411905D01*
X225523810Y-119292857D02*
X225523810Y-119626190D01*
X225404763Y-119102381D02*
X225285715Y-119459524D01*
X225595239Y-119459524D01*
D16*
X226138095Y-116542857D02*
X227661905Y-116542857D01*
X226900000Y-117304762D02*
X226900000Y-115780952D01*
X221338095Y-116542857D02*
X222861905Y-116542857D01*
D19*
X182690477Y-104826190D02*
X182452382Y-104826190D01*
X182452382Y-104326190D01*
X182857144Y-104826190D02*
X182857144Y-104326190D01*
X182857144Y-104516667D02*
X182904763Y-104492857D01*
X183000001Y-104492857D01*
X183047620Y-104516667D01*
X183071429Y-104540476D01*
X183095239Y-104588095D01*
X183095239Y-104730952D01*
X183071429Y-104778571D01*
X183047620Y-104802381D01*
X183000001Y-104826190D01*
X182904763Y-104826190D01*
X182857144Y-104802381D01*
X183571429Y-104826190D02*
X183285715Y-104826190D01*
X183428572Y-104826190D02*
X183428572Y-104326190D01*
X183380953Y-104397619D01*
X183333334Y-104445238D01*
X183285715Y-104469048D01*
D16*
X180338095Y-107742857D02*
X181861905Y-107742857D01*
X181100000Y-108504762D02*
X181100000Y-106980952D01*
X185138095Y-107742857D02*
X186661905Y-107742857D01*
D19*
X182690477Y-116826190D02*
X182452382Y-116826190D01*
X182452382Y-116326190D01*
X182857144Y-116826190D02*
X182857144Y-116326190D01*
X182857144Y-116516667D02*
X182904763Y-116492857D01*
X183000001Y-116492857D01*
X183047620Y-116516667D01*
X183071429Y-116540476D01*
X183095239Y-116588095D01*
X183095239Y-116730952D01*
X183071429Y-116778571D01*
X183047620Y-116802381D01*
X183000001Y-116826190D01*
X182904763Y-116826190D01*
X182857144Y-116802381D01*
X183285715Y-116373810D02*
X183309525Y-116350000D01*
X183357144Y-116326190D01*
X183476191Y-116326190D01*
X183523810Y-116350000D01*
X183547620Y-116373810D01*
X183571429Y-116421429D01*
X183571429Y-116469048D01*
X183547620Y-116540476D01*
X183261906Y-116826190D01*
X183571429Y-116826190D01*
D16*
X180338095Y-119742857D02*
X181861905Y-119742857D01*
X181100000Y-120504762D02*
X181100000Y-118980952D01*
X185138095Y-119742857D02*
X186661905Y-119742857D01*
D19*
X214690477Y-107626190D02*
X214452382Y-107626190D01*
X214452382Y-107126190D01*
X214857144Y-107626190D02*
X214857144Y-107126190D01*
X214857144Y-107316667D02*
X214904763Y-107292857D01*
X215000001Y-107292857D01*
X215047620Y-107316667D01*
X215071429Y-107340476D01*
X215095239Y-107388095D01*
X215095239Y-107530952D01*
X215071429Y-107578571D01*
X215047620Y-107602381D01*
X215000001Y-107626190D01*
X214904763Y-107626190D01*
X214857144Y-107602381D01*
X215261906Y-107126190D02*
X215571429Y-107126190D01*
X215404763Y-107316667D01*
X215476191Y-107316667D01*
X215523810Y-107340476D01*
X215547620Y-107364286D01*
X215571429Y-107411905D01*
X215571429Y-107530952D01*
X215547620Y-107578571D01*
X215523810Y-107602381D01*
X215476191Y-107626190D01*
X215333334Y-107626190D01*
X215285715Y-107602381D01*
X215261906Y-107578571D01*
D16*
X216138095Y-104542857D02*
X217661905Y-104542857D01*
X216900000Y-105304762D02*
X216900000Y-103780952D01*
X211338095Y-104542857D02*
X212861905Y-104542857D01*
D19*
X214890477Y-119626190D02*
X214652382Y-119626190D01*
X214652382Y-119126190D01*
X215057144Y-119626190D02*
X215057144Y-119126190D01*
X215057144Y-119316667D02*
X215104763Y-119292857D01*
X215200001Y-119292857D01*
X215247620Y-119316667D01*
X215271429Y-119340476D01*
X215295239Y-119388095D01*
X215295239Y-119530952D01*
X215271429Y-119578571D01*
X215247620Y-119602381D01*
X215200001Y-119626190D01*
X215104763Y-119626190D01*
X215057144Y-119602381D01*
X215723810Y-119292857D02*
X215723810Y-119626190D01*
X215604763Y-119102381D02*
X215485715Y-119459524D01*
X215795239Y-119459524D01*
D16*
X216338095Y-116542857D02*
X217861905Y-116542857D01*
X217100000Y-117304762D02*
X217100000Y-115780952D01*
X211538095Y-116542857D02*
X213061905Y-116542857D01*
D19*
X192702382Y-104826190D02*
X192464287Y-104826190D01*
X192464287Y-104326190D01*
X193083334Y-104802381D02*
X193035715Y-104826190D01*
X192940477Y-104826190D01*
X192892858Y-104802381D01*
X192869049Y-104778571D01*
X192845239Y-104730952D01*
X192845239Y-104588095D01*
X192869049Y-104540476D01*
X192892858Y-104516667D01*
X192940477Y-104492857D01*
X193035715Y-104492857D01*
X193083334Y-104516667D01*
X193559524Y-104826190D02*
X193273810Y-104826190D01*
X193416667Y-104826190D02*
X193416667Y-104326190D01*
X193369048Y-104397619D01*
X193321429Y-104445238D01*
X193273810Y-104469048D01*
D16*
X190338095Y-107742857D02*
X191861905Y-107742857D01*
X191100000Y-108504762D02*
X191100000Y-106980952D01*
X195138095Y-107742857D02*
X196661905Y-107742857D01*
D19*
X192702382Y-116826190D02*
X192464287Y-116826190D01*
X192464287Y-116326190D01*
X193083334Y-116802381D02*
X193035715Y-116826190D01*
X192940477Y-116826190D01*
X192892858Y-116802381D01*
X192869049Y-116778571D01*
X192845239Y-116730952D01*
X192845239Y-116588095D01*
X192869049Y-116540476D01*
X192892858Y-116516667D01*
X192940477Y-116492857D01*
X193035715Y-116492857D01*
X193083334Y-116516667D01*
X193273810Y-116373810D02*
X193297620Y-116350000D01*
X193345239Y-116326190D01*
X193464286Y-116326190D01*
X193511905Y-116350000D01*
X193535715Y-116373810D01*
X193559524Y-116421429D01*
X193559524Y-116469048D01*
X193535715Y-116540476D01*
X193250001Y-116826190D01*
X193559524Y-116826190D01*
D16*
X190338095Y-119742857D02*
X191861905Y-119742857D01*
X191100000Y-120504762D02*
X191100000Y-118980952D01*
X195138095Y-119742857D02*
X196661905Y-119742857D01*
D19*
X204702382Y-107626190D02*
X204464287Y-107626190D01*
X204464287Y-107126190D01*
X205083334Y-107602381D02*
X205035715Y-107626190D01*
X204940477Y-107626190D01*
X204892858Y-107602381D01*
X204869049Y-107578571D01*
X204845239Y-107530952D01*
X204845239Y-107388095D01*
X204869049Y-107340476D01*
X204892858Y-107316667D01*
X204940477Y-107292857D01*
X205035715Y-107292857D01*
X205083334Y-107316667D01*
X205250001Y-107126190D02*
X205559524Y-107126190D01*
X205392858Y-107316667D01*
X205464286Y-107316667D01*
X205511905Y-107340476D01*
X205535715Y-107364286D01*
X205559524Y-107411905D01*
X205559524Y-107530952D01*
X205535715Y-107578571D01*
X205511905Y-107602381D01*
X205464286Y-107626190D01*
X205321429Y-107626190D01*
X205273810Y-107602381D01*
X205250001Y-107578571D01*
D16*
X206138095Y-104542857D02*
X207661905Y-104542857D01*
X206900000Y-105304762D02*
X206900000Y-103780952D01*
X201338095Y-104542857D02*
X202861905Y-104542857D01*
D19*
X204702382Y-119626190D02*
X204464287Y-119626190D01*
X204464287Y-119126190D01*
X205083334Y-119602381D02*
X205035715Y-119626190D01*
X204940477Y-119626190D01*
X204892858Y-119602381D01*
X204869049Y-119578571D01*
X204845239Y-119530952D01*
X204845239Y-119388095D01*
X204869049Y-119340476D01*
X204892858Y-119316667D01*
X204940477Y-119292857D01*
X205035715Y-119292857D01*
X205083334Y-119316667D01*
X205511905Y-119292857D02*
X205511905Y-119626190D01*
X205392858Y-119102381D02*
X205273810Y-119459524D01*
X205583334Y-119459524D01*
D16*
X206138095Y-116542857D02*
X207661905Y-116542857D01*
X206900000Y-117304762D02*
X206900000Y-115780952D01*
X201338095Y-116542857D02*
X202861905Y-116542857D01*
%LPC*%
D20*
X179000000Y-112000000D03*
X219000000Y-112000000D03*
D21*
X216710060Y-101500000D03*
X218289940Y-101500000D03*
X181289940Y-101500000D03*
X179710060Y-101500000D03*
X218289940Y-122500000D03*
X216710060Y-122500000D03*
X179710060Y-122500000D03*
X181289940Y-122500000D03*
D22*
X171892500Y-106000000D03*
D23*
X173457500Y-106000000D03*
D22*
X171892500Y-118000000D03*
D23*
X173457500Y-118000000D03*
D22*
X226107500Y-106000000D03*
D23*
X224542500Y-106000000D03*
D22*
X226107500Y-118000000D03*
D23*
X224542500Y-118000000D03*
D22*
X181892500Y-106000000D03*
D23*
X183457500Y-106000000D03*
D22*
X181892500Y-118000000D03*
D23*
X183457500Y-118000000D03*
D22*
X216107500Y-106000000D03*
D23*
X214542500Y-106000000D03*
D22*
X216307500Y-118000000D03*
D23*
X214742500Y-118000000D03*
D22*
X191892500Y-106000000D03*
D23*
X193457500Y-106000000D03*
D22*
X191892500Y-118000000D03*
D23*
X193457500Y-118000000D03*
D22*
X206107500Y-106000000D03*
D23*
X204542500Y-106000000D03*
D22*
X206107500Y-118000000D03*
D23*
X204542500Y-118000000D03*
D24*
X207460000Y-112000000D03*
D25*
X212540000Y-112000000D03*
M02*
