%FSLAX46Y46*%
G04 Gerber Fmt 4.6, Leading zero omitted, Abs format (unit mm)*
G04 Created by KiCad (PCBNEW (2014-jul-16 BZR unknown)-product) date Di 22 Jul 2014 17:33:52 CEST*
%MOMM*%
G01*
G04 APERTURE LIST*
%ADD10C,0.100000*%
%ADD11C,5.000000*%
%ADD12R,0.599440X0.797560*%
%ADD13O,0.415000X1.630000*%
%ADD14R,1.715000X1.630000*%
%ADD15R,5.000000X5.000000*%
%ADD16R,2.000000X5.000000*%
%ADD17R,2.200000X2.200000*%
%ADD18C,2.200000*%
%ADD19C,0.900000*%
%ADD20C,0.500000*%
%ADD21C,0.254000*%
%ADD22C,1.000000*%
%ADD23C,0.030000*%
G04 APERTURE END LIST*
D10*
D11*
X179000000Y-112000000D03*
X219000000Y-112000000D03*
D12*
X216710060Y-101500000D03*
X218289940Y-101500000D03*
X181289940Y-101500000D03*
X179710060Y-101500000D03*
X218289940Y-122500000D03*
X216710060Y-122500000D03*
X179710060Y-122500000D03*
X181289940Y-122500000D03*
D13*
X171892500Y-106000000D03*
D14*
X173457500Y-106000000D03*
D15*
X175100000Y-106100000D03*
D16*
X171100000Y-106100000D03*
D13*
X171892500Y-118000000D03*
D14*
X173457500Y-118000000D03*
D15*
X175100000Y-118100000D03*
D16*
X171100000Y-118100000D03*
D13*
X226107500Y-106000000D03*
D14*
X224542500Y-106000000D03*
D15*
X222900000Y-105900000D03*
D16*
X226900000Y-105900000D03*
D13*
X226107500Y-118000000D03*
D14*
X224542500Y-118000000D03*
D15*
X222900000Y-117900000D03*
D16*
X226900000Y-117900000D03*
D13*
X181892500Y-106000000D03*
D14*
X183457500Y-106000000D03*
D15*
X185100000Y-106100000D03*
D16*
X181100000Y-106100000D03*
D13*
X181892500Y-118000000D03*
D14*
X183457500Y-118000000D03*
D15*
X185100000Y-118100000D03*
D16*
X181100000Y-118100000D03*
D13*
X216107500Y-106000000D03*
D14*
X214542500Y-106000000D03*
D15*
X212900000Y-105900000D03*
D16*
X216900000Y-105900000D03*
D13*
X216307500Y-118000000D03*
D14*
X214742500Y-118000000D03*
D15*
X213100000Y-117900000D03*
D16*
X217100000Y-117900000D03*
D13*
X191892500Y-106000000D03*
D14*
X193457500Y-106000000D03*
D15*
X195100000Y-106100000D03*
D16*
X191100000Y-106100000D03*
D13*
X191892500Y-118000000D03*
D14*
X193457500Y-118000000D03*
D15*
X195100000Y-118100000D03*
D16*
X191100000Y-118100000D03*
D13*
X206107500Y-106000000D03*
D14*
X204542500Y-106000000D03*
D15*
X202900000Y-105900000D03*
D16*
X206900000Y-105900000D03*
D13*
X206107500Y-118000000D03*
D14*
X204542500Y-118000000D03*
D15*
X202900000Y-117900000D03*
D16*
X206900000Y-117900000D03*
D17*
X207460000Y-112000000D03*
D18*
X212540000Y-112000000D03*
D19*
X199898000Y-116586000D03*
X199898000Y-117983000D03*
X199898000Y-119380000D03*
X197866000Y-119380000D03*
X197874090Y-118000000D03*
X197866000Y-116586000D03*
X198900000Y-116600000D03*
X198900000Y-118000000D03*
X198900000Y-119400000D03*
X228219000Y-113411000D03*
X170800000Y-113200000D03*
X226900000Y-112000000D03*
X226900000Y-113400000D03*
X226900000Y-110500000D03*
X170750000Y-110750000D03*
X170750000Y-112000000D03*
X171750000Y-113250000D03*
X171750000Y-112000000D03*
X171750000Y-110750000D03*
X228250000Y-110500000D03*
X228250000Y-112000000D03*
D20*
X195100000Y-118000000D02*
X195100000Y-110800000D01*
X195100000Y-110800000D02*
X199900000Y-106000000D01*
X199900000Y-106000000D02*
X202900000Y-106000000D01*
D21*
X199898000Y-116586000D02*
X198914000Y-116586000D01*
X198914000Y-116586000D02*
X198900000Y-116600000D01*
D20*
X195100000Y-118000000D02*
X197874090Y-118000000D01*
X197874090Y-118000000D02*
X198100000Y-118000000D01*
X181289940Y-122500000D02*
X193600000Y-122500000D01*
X193600000Y-122500000D02*
X195100000Y-121000000D01*
X195100000Y-121000000D02*
X195100000Y-118000000D01*
X216710060Y-122500000D02*
X204400000Y-122500000D01*
X204400000Y-122500000D02*
X202900000Y-121000000D01*
X202900000Y-121000000D02*
X202900000Y-118000000D01*
X216710060Y-101500000D02*
X204400000Y-101500000D01*
X204400000Y-101500000D02*
X202900000Y-103000000D01*
X202900000Y-103000000D02*
X202900000Y-106000000D01*
X181289940Y-101500000D02*
X193600000Y-101500000D01*
X193600000Y-101500000D02*
X195100000Y-103000000D01*
X195100000Y-103000000D02*
X195100000Y-106000000D01*
X198100000Y-118000000D02*
X202900000Y-118000000D01*
X202900000Y-118000000D02*
X202900000Y-106000000D01*
X195100000Y-106000000D02*
X195100000Y-109000000D01*
X195100000Y-109000000D02*
X195100000Y-118000000D01*
X195100000Y-106000000D02*
X202900000Y-106000000D01*
X198900000Y-119400000D02*
X199600000Y-118700000D01*
X199600000Y-118700000D02*
X203500000Y-118700000D01*
X203500000Y-118700000D02*
X204300000Y-117900000D01*
X204300000Y-117900000D02*
X204542500Y-118100000D01*
X179710060Y-101500000D02*
X171600000Y-101500000D01*
X171100000Y-102000000D02*
X171100000Y-106000000D01*
X171600000Y-101500000D02*
X171100000Y-102000000D01*
D22*
X229039001Y-114231001D02*
X228668999Y-113860999D01*
X229293001Y-114231001D02*
X229039001Y-114231001D01*
X226900000Y-113400000D02*
X228462000Y-113400000D01*
X228250000Y-113188000D02*
X229293001Y-114231001D01*
X228462000Y-113400000D02*
X229293001Y-114231001D01*
X228668999Y-113860999D02*
X228219000Y-113411000D01*
X228250000Y-112000000D02*
X228250000Y-113188000D01*
D20*
X179710060Y-122500000D02*
X172600000Y-122500000D01*
X172600000Y-122500000D02*
X171100000Y-121000000D01*
X171100000Y-121000000D02*
X171100000Y-118000000D01*
X170800000Y-113200000D02*
X170800000Y-117700000D01*
X170800000Y-117700000D02*
X171100000Y-118000000D01*
X226900000Y-118000000D02*
X226900000Y-121000000D01*
X226900000Y-121000000D02*
X225400000Y-122500000D01*
X225400000Y-122500000D02*
X219089660Y-122500000D01*
X219089660Y-122500000D02*
X218289940Y-122500000D01*
X225400000Y-101500000D02*
X219089660Y-101500000D01*
X226900000Y-103000000D02*
X225400000Y-101500000D01*
X226900000Y-106000000D02*
X226900000Y-103000000D01*
X219089660Y-101500000D02*
X218289940Y-101500000D01*
X171100000Y-106000000D02*
X171100000Y-104092798D01*
D22*
X226900000Y-118000000D02*
X226900000Y-112000000D01*
X226900000Y-113400000D02*
X226900000Y-110500000D01*
D20*
X170800000Y-110800000D02*
X170800000Y-106300000D01*
X170800000Y-106300000D02*
X171100000Y-106000000D01*
D22*
X170750000Y-110750000D02*
X170800000Y-110800000D01*
X170800000Y-112050000D02*
X170750000Y-112000000D01*
X170800000Y-113200000D02*
X170800000Y-112050000D01*
X170750000Y-113150000D02*
X170850000Y-113250000D01*
X170850000Y-113250000D02*
X170850000Y-112900000D01*
X170850000Y-112900000D02*
X171200000Y-113250000D01*
X171200000Y-113250000D02*
X171750000Y-113250000D01*
X170750000Y-112000000D02*
X170750000Y-113150000D01*
X226900000Y-110500000D02*
X226900000Y-106000000D01*
X171750000Y-112000000D02*
X171750000Y-110750000D01*
X170750000Y-112000000D02*
X170750000Y-110750000D01*
X171750000Y-112000000D02*
X171750000Y-113250000D01*
X228250000Y-112000000D02*
X228250000Y-110500000D01*
X226900000Y-112000000D02*
X228250000Y-112000000D01*
X226900000Y-110500000D02*
X226900000Y-112000000D01*
X228250000Y-110500000D02*
X226900000Y-110500000D01*
D20*
X175100000Y-106000000D02*
X178100000Y-106000000D01*
X178100000Y-106000000D02*
X181100000Y-106000000D01*
X175100000Y-118000000D02*
X181100000Y-118000000D01*
X185100000Y-106000000D02*
X191100000Y-106000000D01*
X185100000Y-118000000D02*
X188100000Y-118000000D01*
X188100000Y-118000000D02*
X191100000Y-118000000D01*
D23*
G36*
X217485000Y-124710000D02*
X180736000Y-124710000D01*
X180736000Y-122429949D01*
X182415000Y-122412817D01*
X182415000Y-122215072D01*
X192620108Y-122263013D01*
X192619800Y-121645985D01*
X192615000Y-112000024D01*
X192615000Y-101767734D01*
X182415000Y-101685114D01*
X182415000Y-101485000D01*
X180736000Y-101485000D01*
X180736000Y-99290000D01*
X217464499Y-99290000D01*
X217483559Y-101767809D01*
X215585000Y-101787183D01*
X215585000Y-101892886D01*
X205685000Y-101782591D01*
X205685000Y-103237582D01*
X205661615Y-103272581D01*
X205641338Y-103321535D01*
X205631000Y-103373506D01*
X205631000Y-103426494D01*
X205631000Y-105387255D01*
X205631000Y-106612745D01*
X205631000Y-108426494D01*
X205641337Y-108478464D01*
X205661615Y-108527419D01*
X205685000Y-108562416D01*
X205685000Y-112179382D01*
X205652144Y-112179271D01*
X205650059Y-115300478D01*
X205641338Y-115321535D01*
X205631000Y-115373506D01*
X205631000Y-115426494D01*
X205631000Y-117387255D01*
X205631000Y-118612745D01*
X205631000Y-120426494D01*
X205641337Y-120478464D01*
X205646593Y-120491153D01*
X205645999Y-121380741D01*
X205653619Y-122389000D01*
X215785888Y-122389000D01*
X215787161Y-122515000D01*
X217485000Y-122515000D01*
X217485000Y-124710000D01*
X217485000Y-124710000D01*
G37*
X217485000Y-124710000D02*
X180736000Y-124710000D01*
X180736000Y-122429949D01*
X182415000Y-122412817D01*
X182415000Y-122215072D01*
X192620108Y-122263013D01*
X192619800Y-121645985D01*
X192615000Y-112000024D01*
X192615000Y-101767734D01*
X182415000Y-101685114D01*
X182415000Y-101485000D01*
X180736000Y-101485000D01*
X180736000Y-99290000D01*
X217464499Y-99290000D01*
X217483559Y-101767809D01*
X215585000Y-101787183D01*
X215585000Y-101892886D01*
X205685000Y-101782591D01*
X205685000Y-103237582D01*
X205661615Y-103272581D01*
X205641338Y-103321535D01*
X205631000Y-103373506D01*
X205631000Y-103426494D01*
X205631000Y-105387255D01*
X205631000Y-106612745D01*
X205631000Y-108426494D01*
X205641337Y-108478464D01*
X205661615Y-108527419D01*
X205685000Y-108562416D01*
X205685000Y-112179382D01*
X205652144Y-112179271D01*
X205650059Y-115300478D01*
X205641338Y-115321535D01*
X205631000Y-115373506D01*
X205631000Y-115426494D01*
X205631000Y-117387255D01*
X205631000Y-118612745D01*
X205631000Y-120426494D01*
X205641337Y-120478464D01*
X205646593Y-120491153D01*
X205645999Y-121380741D01*
X205653619Y-122389000D01*
X215785888Y-122389000D01*
X215787161Y-122515000D01*
X217485000Y-122515000D01*
X217485000Y-124710000D01*
G36*
X215781767Y-121981000D02*
X205880541Y-121981000D01*
X205876000Y-121379948D01*
X205881990Y-112410051D01*
X206091000Y-112410759D01*
X206091000Y-113126494D01*
X206101337Y-113178464D01*
X206121615Y-113227419D01*
X206151054Y-113271477D01*
X206188522Y-113308946D01*
X206232581Y-113338385D01*
X206281535Y-113358662D01*
X206333506Y-113369000D01*
X206386494Y-113369000D01*
X208586494Y-113369000D01*
X208638464Y-113358663D01*
X208687419Y-113338385D01*
X208731477Y-113308946D01*
X208768946Y-113271478D01*
X208798385Y-113227419D01*
X208818662Y-113178465D01*
X208829000Y-113126494D01*
X208829000Y-113073506D01*
X208829000Y-112420037D01*
X211237075Y-112428198D01*
X211316497Y-112628795D01*
X211461932Y-112854466D01*
X211648431Y-113047590D01*
X211868889Y-113200813D01*
X212114909Y-113308296D01*
X212377121Y-113365947D01*
X212645537Y-113371570D01*
X212909933Y-113324950D01*
X213160238Y-113227862D01*
X213386919Y-113084007D01*
X213581341Y-112898861D01*
X213736098Y-112679478D01*
X213844042Y-112437032D01*
X215685425Y-112443272D01*
X215781767Y-121981000D01*
X215781767Y-121981000D01*
G37*
X215781767Y-121981000D02*
X205880541Y-121981000D01*
X205876000Y-121379948D01*
X205881990Y-112410051D01*
X206091000Y-112410759D01*
X206091000Y-113126494D01*
X206101337Y-113178464D01*
X206121615Y-113227419D01*
X206151054Y-113271477D01*
X206188522Y-113308946D01*
X206232581Y-113338385D01*
X206281535Y-113358662D01*
X206333506Y-113369000D01*
X206386494Y-113369000D01*
X208586494Y-113369000D01*
X208638464Y-113358663D01*
X208687419Y-113338385D01*
X208731477Y-113308946D01*
X208768946Y-113271478D01*
X208798385Y-113227419D01*
X208818662Y-113178465D01*
X208829000Y-113126494D01*
X208829000Y-113073506D01*
X208829000Y-112420037D01*
X211237075Y-112428198D01*
X211316497Y-112628795D01*
X211461932Y-112854466D01*
X211648431Y-113047590D01*
X211868889Y-113200813D01*
X212114909Y-113308296D01*
X212377121Y-113365947D01*
X212645537Y-113371570D01*
X212909933Y-113324950D01*
X213160238Y-113227862D01*
X213386919Y-113084007D01*
X213581341Y-112898861D01*
X213736098Y-112679478D01*
X213844042Y-112437032D01*
X215685425Y-112443272D01*
X215781767Y-121981000D01*
G36*
X231710000Y-124710000D02*
X217715000Y-124710000D01*
X217715000Y-122515000D01*
X225815000Y-122515000D01*
X225815000Y-112215000D01*
X225815000Y-112185000D01*
X225815000Y-101682795D01*
X217715000Y-101765448D01*
X217715000Y-99290000D01*
X231710000Y-99290000D01*
X231710000Y-124710000D01*
X231710000Y-124710000D01*
G37*
X231710000Y-124710000D02*
X217715000Y-124710000D01*
X217715000Y-122515000D01*
X225815000Y-122515000D01*
X225815000Y-112215000D01*
X225815000Y-112185000D01*
X225815000Y-101682795D01*
X217715000Y-101765448D01*
X217715000Y-99290000D01*
X231710000Y-99290000D01*
X231710000Y-124710000D01*
G36*
X192389966Y-121981000D02*
X182415000Y-121981000D01*
X182415000Y-112101982D01*
X182415000Y-112015000D01*
X192385007Y-112015000D01*
X192386707Y-115432868D01*
X192371953Y-115447623D01*
X192331000Y-115546492D01*
X192331000Y-115653507D01*
X192331000Y-117131492D01*
X192331000Y-117238507D01*
X192331000Y-118868507D01*
X192331000Y-120653507D01*
X192371953Y-120752376D01*
X192389363Y-120769787D01*
X192389800Y-121646099D01*
X192389966Y-121981000D01*
X192389966Y-121981000D01*
G37*
X192389966Y-121981000D02*
X182415000Y-121981000D01*
X182415000Y-112101982D01*
X182415000Y-112015000D01*
X192385007Y-112015000D01*
X192386707Y-115432868D01*
X192371953Y-115447623D01*
X192331000Y-115546492D01*
X192331000Y-115653507D01*
X192331000Y-117131492D01*
X192331000Y-117238507D01*
X192331000Y-118868507D01*
X192331000Y-120653507D01*
X192371953Y-120752376D01*
X192389363Y-120769787D01*
X192389800Y-121646099D01*
X192389966Y-121981000D01*
G36*
X192385000Y-111785000D02*
X182415000Y-111785000D01*
X182415000Y-102019000D01*
X192385000Y-102019000D01*
X192385000Y-103434576D01*
X192371953Y-103447623D01*
X192331000Y-103546492D01*
X192331000Y-103653507D01*
X192331000Y-105131492D01*
X192331000Y-105238507D01*
X192331000Y-106868507D01*
X192331000Y-108653507D01*
X192371953Y-108752376D01*
X192385000Y-108765423D01*
X192385000Y-111785000D01*
X192385000Y-111785000D01*
G37*
X192385000Y-111785000D02*
X182415000Y-111785000D01*
X182415000Y-102019000D01*
X192385000Y-102019000D01*
X192385000Y-103434576D01*
X192371953Y-103447623D01*
X192331000Y-103546492D01*
X192331000Y-103653507D01*
X192331000Y-105131492D01*
X192331000Y-105238507D01*
X192331000Y-106868507D01*
X192331000Y-108653507D01*
X192371953Y-108752376D01*
X192385000Y-108765423D01*
X192385000Y-111785000D01*
G36*
X182185000Y-111785000D02*
X181768329Y-111785000D01*
X181769119Y-111728486D01*
X181663644Y-111195799D01*
X181456712Y-110693743D01*
X181156204Y-110241443D01*
X180773567Y-109856125D01*
X180323376Y-109552468D01*
X179822777Y-109342035D01*
X179290840Y-109232844D01*
X178747824Y-109229053D01*
X178214414Y-109330807D01*
X177710926Y-109534229D01*
X177256539Y-109831572D01*
X176868559Y-110211509D01*
X176561766Y-110659570D01*
X176347844Y-111158687D01*
X176234942Y-111689849D01*
X176233613Y-111785000D01*
X172519000Y-111785000D01*
X172519000Y-110750000D01*
X172504355Y-110600634D01*
X172460976Y-110456957D01*
X172398885Y-110340183D01*
X172369000Y-107261947D01*
X172369000Y-106612745D01*
X172369000Y-105387255D01*
X172369000Y-103573506D01*
X172358663Y-103521536D01*
X172338385Y-103472581D01*
X172332118Y-103463203D01*
X172318097Y-102019000D01*
X179168973Y-102019000D01*
X179171955Y-102026199D01*
X179201394Y-102070257D01*
X179238862Y-102107726D01*
X179282921Y-102137165D01*
X179331875Y-102157442D01*
X179383846Y-102167780D01*
X179436834Y-102167780D01*
X180036274Y-102167780D01*
X180088244Y-102157443D01*
X180137199Y-102137165D01*
X180181257Y-102107726D01*
X180218726Y-102070258D01*
X180248165Y-102026199D01*
X180268442Y-101977245D01*
X180278780Y-101925274D01*
X180278780Y-101872286D01*
X180278780Y-101715000D01*
X180721220Y-101715000D01*
X180721220Y-101925274D01*
X180731557Y-101977244D01*
X180751835Y-102026199D01*
X180781274Y-102070257D01*
X180818742Y-102107726D01*
X180862801Y-102137165D01*
X180911755Y-102157442D01*
X180963726Y-102167780D01*
X181016714Y-102167780D01*
X181616154Y-102167780D01*
X181668124Y-102157443D01*
X181717079Y-102137165D01*
X181761137Y-102107726D01*
X181798606Y-102070258D01*
X181828045Y-102026199D01*
X181831026Y-102019000D01*
X182185000Y-102019000D01*
X182185000Y-111785000D01*
X182185000Y-111785000D01*
G37*
X182185000Y-111785000D02*
X181768329Y-111785000D01*
X181769119Y-111728486D01*
X181663644Y-111195799D01*
X181456712Y-110693743D01*
X181156204Y-110241443D01*
X180773567Y-109856125D01*
X180323376Y-109552468D01*
X179822777Y-109342035D01*
X179290840Y-109232844D01*
X178747824Y-109229053D01*
X178214414Y-109330807D01*
X177710926Y-109534229D01*
X177256539Y-109831572D01*
X176868559Y-110211509D01*
X176561766Y-110659570D01*
X176347844Y-111158687D01*
X176234942Y-111689849D01*
X176233613Y-111785000D01*
X172519000Y-111785000D01*
X172519000Y-110750000D01*
X172504355Y-110600634D01*
X172460976Y-110456957D01*
X172398885Y-110340183D01*
X172369000Y-107261947D01*
X172369000Y-106612745D01*
X172369000Y-105387255D01*
X172369000Y-103573506D01*
X172358663Y-103521536D01*
X172338385Y-103472581D01*
X172332118Y-103463203D01*
X172318097Y-102019000D01*
X179168973Y-102019000D01*
X179171955Y-102026199D01*
X179201394Y-102070257D01*
X179238862Y-102107726D01*
X179282921Y-102137165D01*
X179331875Y-102157442D01*
X179383846Y-102167780D01*
X179436834Y-102167780D01*
X180036274Y-102167780D01*
X180088244Y-102157443D01*
X180137199Y-102137165D01*
X180181257Y-102107726D01*
X180218726Y-102070258D01*
X180248165Y-102026199D01*
X180268442Y-101977245D01*
X180278780Y-101925274D01*
X180278780Y-101872286D01*
X180278780Y-101715000D01*
X180721220Y-101715000D01*
X180721220Y-101925274D01*
X180731557Y-101977244D01*
X180751835Y-102026199D01*
X180781274Y-102070257D01*
X180818742Y-102107726D01*
X180862801Y-102137165D01*
X180911755Y-102157442D01*
X180963726Y-102167780D01*
X181016714Y-102167780D01*
X181616154Y-102167780D01*
X181668124Y-102157443D01*
X181717079Y-102137165D01*
X181761137Y-102107726D01*
X181798606Y-102070258D01*
X181828045Y-102026199D01*
X181831026Y-102019000D01*
X182185000Y-102019000D01*
X182185000Y-111785000D01*
G36*
X182185000Y-121981000D02*
X181831026Y-121981000D01*
X181828045Y-121973801D01*
X181798606Y-121929743D01*
X181761138Y-121892274D01*
X181717079Y-121862835D01*
X181668125Y-121842558D01*
X181616154Y-121832220D01*
X181563166Y-121832220D01*
X180963726Y-121832220D01*
X180911756Y-121842557D01*
X180862801Y-121862835D01*
X180818743Y-121892274D01*
X180781274Y-121929742D01*
X180751835Y-121973801D01*
X180731558Y-122022755D01*
X180721220Y-122074726D01*
X180721220Y-122127714D01*
X180721220Y-122200088D01*
X180278780Y-122204603D01*
X180278780Y-122074726D01*
X180268443Y-122022756D01*
X180248165Y-121973801D01*
X180218726Y-121929743D01*
X180181258Y-121892274D01*
X180137199Y-121862835D01*
X180088245Y-121842558D01*
X180036274Y-121832220D01*
X179983286Y-121832220D01*
X179383846Y-121832220D01*
X179331876Y-121842557D01*
X179282921Y-121862835D01*
X179238863Y-121892274D01*
X179201394Y-121929742D01*
X179171955Y-121973801D01*
X179168973Y-121981000D01*
X172814976Y-121981000D01*
X172415000Y-121581023D01*
X172415000Y-113629214D01*
X172421957Y-113616346D01*
X172456815Y-113552941D01*
X172457629Y-113550371D01*
X172458913Y-113547999D01*
X172480301Y-113478902D01*
X172502196Y-113409884D01*
X172502496Y-113407200D01*
X172503293Y-113404629D01*
X172510850Y-113332727D01*
X172518925Y-113260737D01*
X172518961Y-113255557D01*
X172518981Y-113255369D01*
X172518963Y-113255180D01*
X172519000Y-113250000D01*
X172519000Y-112015000D01*
X176230401Y-112015000D01*
X176227360Y-112232825D01*
X176325387Y-112766933D01*
X176525290Y-113271828D01*
X176819453Y-113728280D01*
X177196672Y-114118903D01*
X177642580Y-114428817D01*
X178140192Y-114646218D01*
X178670553Y-114762825D01*
X179213463Y-114774198D01*
X179748242Y-114679902D01*
X180254521Y-114483529D01*
X180713015Y-114192560D01*
X181106262Y-113818076D01*
X181419281Y-113374343D01*
X181640151Y-112878261D01*
X181760458Y-112348727D01*
X181765118Y-112015000D01*
X182185000Y-112015000D01*
X182185000Y-121981000D01*
X182185000Y-121981000D01*
G37*
X182185000Y-121981000D02*
X181831026Y-121981000D01*
X181828045Y-121973801D01*
X181798606Y-121929743D01*
X181761138Y-121892274D01*
X181717079Y-121862835D01*
X181668125Y-121842558D01*
X181616154Y-121832220D01*
X181563166Y-121832220D01*
X180963726Y-121832220D01*
X180911756Y-121842557D01*
X180862801Y-121862835D01*
X180818743Y-121892274D01*
X180781274Y-121929742D01*
X180751835Y-121973801D01*
X180731558Y-122022755D01*
X180721220Y-122074726D01*
X180721220Y-122127714D01*
X180721220Y-122200088D01*
X180278780Y-122204603D01*
X180278780Y-122074726D01*
X180268443Y-122022756D01*
X180248165Y-121973801D01*
X180218726Y-121929743D01*
X180181258Y-121892274D01*
X180137199Y-121862835D01*
X180088245Y-121842558D01*
X180036274Y-121832220D01*
X179983286Y-121832220D01*
X179383846Y-121832220D01*
X179331876Y-121842557D01*
X179282921Y-121862835D01*
X179238863Y-121892274D01*
X179201394Y-121929742D01*
X179171955Y-121973801D01*
X179168973Y-121981000D01*
X172814976Y-121981000D01*
X172415000Y-121581023D01*
X172415000Y-113629214D01*
X172421957Y-113616346D01*
X172456815Y-113552941D01*
X172457629Y-113550371D01*
X172458913Y-113547999D01*
X172480301Y-113478902D01*
X172502196Y-113409884D01*
X172502496Y-113407200D01*
X172503293Y-113404629D01*
X172510850Y-113332727D01*
X172518925Y-113260737D01*
X172518961Y-113255557D01*
X172518981Y-113255369D01*
X172518963Y-113255180D01*
X172519000Y-113250000D01*
X172519000Y-112015000D01*
X176230401Y-112015000D01*
X176227360Y-112232825D01*
X176325387Y-112766933D01*
X176525290Y-113271828D01*
X176819453Y-113728280D01*
X177196672Y-114118903D01*
X177642580Y-114428817D01*
X178140192Y-114646218D01*
X178670553Y-114762825D01*
X179213463Y-114774198D01*
X179748242Y-114679902D01*
X180254521Y-114483529D01*
X180713015Y-114192560D01*
X181106262Y-113818076D01*
X181419281Y-113374343D01*
X181640151Y-112878261D01*
X181760458Y-112348727D01*
X181765118Y-112015000D01*
X182185000Y-112015000D01*
X182185000Y-121981000D01*
G36*
X180506000Y-101485000D02*
X172082902Y-101485000D01*
X172185000Y-112001069D01*
X172185000Y-122517205D01*
X180404743Y-122433329D01*
X180387230Y-124710000D01*
X166290000Y-124710000D01*
X166290000Y-99290000D01*
X180506000Y-99290000D01*
X180506000Y-101485000D01*
X180506000Y-101485000D01*
G37*
X180506000Y-101485000D02*
X172082902Y-101485000D01*
X172185000Y-112001069D01*
X172185000Y-122517205D01*
X180404743Y-122433329D01*
X180387230Y-124710000D01*
X166290000Y-124710000D01*
X166290000Y-99290000D01*
X180506000Y-99290000D01*
X180506000Y-101485000D01*
G36*
X215585000Y-112125115D02*
X213905776Y-112100821D01*
X213909059Y-111865763D01*
X213856912Y-111602401D01*
X213754604Y-111354184D01*
X213606032Y-111130565D01*
X213416856Y-110940063D01*
X213194280Y-110789934D01*
X212946783Y-110685896D01*
X212683792Y-110631912D01*
X212415324Y-110630038D01*
X212151604Y-110680345D01*
X211902679Y-110780917D01*
X211678029Y-110927924D01*
X211486211Y-111115766D01*
X211334531Y-111337288D01*
X211228768Y-111584053D01*
X211172949Y-111846661D01*
X211169953Y-112061240D01*
X208829000Y-112027373D01*
X208829000Y-110873506D01*
X208818663Y-110821536D01*
X208798385Y-110772581D01*
X208768946Y-110728523D01*
X208731478Y-110691054D01*
X208687419Y-110661615D01*
X208638465Y-110641338D01*
X208586494Y-110631000D01*
X208533506Y-110631000D01*
X206333506Y-110631000D01*
X206281536Y-110641337D01*
X206232581Y-110661615D01*
X206188523Y-110691054D01*
X206151054Y-110728522D01*
X206121615Y-110772581D01*
X206101338Y-110821535D01*
X206091000Y-110873506D01*
X206091000Y-110926494D01*
X206091000Y-111987761D01*
X205915000Y-111985215D01*
X205915000Y-102019000D01*
X206258956Y-102019000D01*
X215579077Y-102122835D01*
X215585000Y-103265637D01*
X215585000Y-112125115D01*
X215585000Y-112125115D01*
G37*
X215585000Y-112125115D02*
X213905776Y-112100821D01*
X213909059Y-111865763D01*
X213856912Y-111602401D01*
X213754604Y-111354184D01*
X213606032Y-111130565D01*
X213416856Y-110940063D01*
X213194280Y-110789934D01*
X212946783Y-110685896D01*
X212683792Y-110631912D01*
X212415324Y-110630038D01*
X212151604Y-110680345D01*
X211902679Y-110780917D01*
X211678029Y-110927924D01*
X211486211Y-111115766D01*
X211334531Y-111337288D01*
X211228768Y-111584053D01*
X211172949Y-111846661D01*
X211169953Y-112061240D01*
X208829000Y-112027373D01*
X208829000Y-110873506D01*
X208818663Y-110821536D01*
X208798385Y-110772581D01*
X208768946Y-110728523D01*
X208731478Y-110691054D01*
X208687419Y-110661615D01*
X208638465Y-110641338D01*
X208586494Y-110631000D01*
X208533506Y-110631000D01*
X206333506Y-110631000D01*
X206281536Y-110641337D01*
X206232581Y-110661615D01*
X206188523Y-110691054D01*
X206151054Y-110728522D01*
X206121615Y-110772581D01*
X206101338Y-110821535D01*
X206091000Y-110873506D01*
X206091000Y-110926494D01*
X206091000Y-111987761D01*
X205915000Y-111985215D01*
X205915000Y-102019000D01*
X206258956Y-102019000D01*
X215579077Y-102122835D01*
X215585000Y-103265637D01*
X215585000Y-112125115D01*
G36*
X225585000Y-121581023D02*
X225185023Y-121981000D01*
X219089660Y-121981000D01*
X218831026Y-121981000D01*
X218828045Y-121973801D01*
X218798606Y-121929743D01*
X218761138Y-121892274D01*
X218717079Y-121862835D01*
X218668125Y-121842558D01*
X218616154Y-121832220D01*
X218563166Y-121832220D01*
X217963726Y-121832220D01*
X217911756Y-121842557D01*
X217862801Y-121862835D01*
X217818743Y-121892274D01*
X217781274Y-121929742D01*
X217751835Y-121973801D01*
X217731558Y-122022755D01*
X217721220Y-122074726D01*
X217721220Y-122127714D01*
X217721220Y-122285000D01*
X217278780Y-122285000D01*
X217278780Y-122074726D01*
X217268443Y-122022756D01*
X217248165Y-121973801D01*
X217218726Y-121929743D01*
X217181258Y-121892274D01*
X217137199Y-121862835D01*
X217088245Y-121842558D01*
X217036274Y-121832220D01*
X216983286Y-121832220D01*
X216383846Y-121832220D01*
X216331876Y-121842557D01*
X216282921Y-121862835D01*
X216238863Y-121892274D01*
X216201394Y-121929742D01*
X216171955Y-121973801D01*
X216168973Y-121981000D01*
X216011778Y-121981000D01*
X215915152Y-112415000D01*
X216260795Y-112415000D01*
X216325387Y-112766933D01*
X216525290Y-113271828D01*
X216819453Y-113728280D01*
X217196672Y-114118903D01*
X217642580Y-114428817D01*
X218140192Y-114646218D01*
X218670553Y-114762825D01*
X219213463Y-114774198D01*
X219748242Y-114679902D01*
X220254521Y-114483529D01*
X220713015Y-114192560D01*
X221106262Y-113818076D01*
X221419281Y-113374343D01*
X221640151Y-112878261D01*
X221745401Y-112415000D01*
X225585000Y-112415000D01*
X225585000Y-121581023D01*
X225585000Y-121581023D01*
G37*
X225585000Y-121581023D02*
X225185023Y-121981000D01*
X219089660Y-121981000D01*
X218831026Y-121981000D01*
X218828045Y-121973801D01*
X218798606Y-121929743D01*
X218761138Y-121892274D01*
X218717079Y-121862835D01*
X218668125Y-121842558D01*
X218616154Y-121832220D01*
X218563166Y-121832220D01*
X217963726Y-121832220D01*
X217911756Y-121842557D01*
X217862801Y-121862835D01*
X217818743Y-121892274D01*
X217781274Y-121929742D01*
X217751835Y-121973801D01*
X217731558Y-122022755D01*
X217721220Y-122074726D01*
X217721220Y-122127714D01*
X217721220Y-122285000D01*
X217278780Y-122285000D01*
X217278780Y-122074726D01*
X217268443Y-122022756D01*
X217248165Y-121973801D01*
X217218726Y-121929743D01*
X217181258Y-121892274D01*
X217137199Y-121862835D01*
X217088245Y-121842558D01*
X217036274Y-121832220D01*
X216983286Y-121832220D01*
X216383846Y-121832220D01*
X216331876Y-121842557D01*
X216282921Y-121862835D01*
X216238863Y-121892274D01*
X216201394Y-121929742D01*
X216171955Y-121973801D01*
X216168973Y-121981000D01*
X216011778Y-121981000D01*
X215915152Y-112415000D01*
X216260795Y-112415000D01*
X216325387Y-112766933D01*
X216525290Y-113271828D01*
X216819453Y-113728280D01*
X217196672Y-114118903D01*
X217642580Y-114428817D01*
X218140192Y-114646218D01*
X218670553Y-114762825D01*
X219213463Y-114774198D01*
X219748242Y-114679902D01*
X220254521Y-114483529D01*
X220713015Y-114192560D01*
X221106262Y-113818076D01*
X221419281Y-113374343D01*
X221640151Y-112878261D01*
X221745401Y-112415000D01*
X225585000Y-112415000D01*
X225585000Y-121581023D01*
G36*
X225585000Y-111985000D02*
X221769014Y-111985000D01*
X221769480Y-111451628D01*
X221348813Y-110433537D01*
X220570560Y-109653925D01*
X219553205Y-109231482D01*
X218451628Y-109230520D01*
X217433537Y-109651187D01*
X216653925Y-110429440D01*
X216231482Y-111446795D01*
X216231011Y-111985000D01*
X215815000Y-111985000D01*
X215815000Y-102019000D01*
X216168973Y-102019000D01*
X216182293Y-102051156D01*
X216257963Y-102126827D01*
X216356832Y-102167780D01*
X216463847Y-102167780D01*
X217063287Y-102167780D01*
X217162156Y-102126827D01*
X217237827Y-102051157D01*
X217258969Y-102000113D01*
X217739001Y-101995215D01*
X217762173Y-102051156D01*
X217837843Y-102126827D01*
X217936712Y-102167780D01*
X218043727Y-102167780D01*
X218643167Y-102167780D01*
X218742036Y-102126827D01*
X218817707Y-102051157D01*
X218831026Y-102019000D01*
X219089660Y-102019000D01*
X225185023Y-102019000D01*
X225585000Y-102418976D01*
X225585000Y-111985000D01*
X225585000Y-111985000D01*
G37*
X225585000Y-111985000D02*
X221769014Y-111985000D01*
X221769480Y-111451628D01*
X221348813Y-110433537D01*
X220570560Y-109653925D01*
X219553205Y-109231482D01*
X218451628Y-109230520D01*
X217433537Y-109651187D01*
X216653925Y-110429440D01*
X216231482Y-111446795D01*
X216231011Y-111985000D01*
X215815000Y-111985000D01*
X215815000Y-102019000D01*
X216168973Y-102019000D01*
X216182293Y-102051156D01*
X216257963Y-102126827D01*
X216356832Y-102167780D01*
X216463847Y-102167780D01*
X217063287Y-102167780D01*
X217162156Y-102126827D01*
X217237827Y-102051157D01*
X217258969Y-102000113D01*
X217739001Y-101995215D01*
X217762173Y-102051156D01*
X217837843Y-102126827D01*
X217936712Y-102167780D01*
X218043727Y-102167780D01*
X218643167Y-102167780D01*
X218742036Y-102126827D01*
X218817707Y-102051157D01*
X218831026Y-102019000D01*
X219089660Y-102019000D01*
X225185023Y-102019000D01*
X225585000Y-102418976D01*
X225585000Y-111985000D01*
M02*
