%FSLAX46Y46*%
G04 Gerber Fmt 4.6, Leading zero omitted, Abs format (unit mm)*
G04 Created by KiCad (PCBNEW (2014-jul-16 BZR unknown)-product) date Di 22 Jul 2014 17:33:52 CEST*
%MOMM*%
G01*
G04 APERTURE LIST*
%ADD10C,0.100000*%
%ADD11C,5.000000*%
%ADD12R,1.750000X1.250000*%
%ADD13R,1.501140X1.998980*%
%ADD14R,1.498600X1.198880*%
%ADD15R,1.245000X2.540000*%
%ADD16R,8.200000X3.300000*%
%ADD17R,2.200000X2.200000*%
%ADD18C,2.200000*%
%ADD19R,1.399540X0.998220*%
%ADD20R,1.250000X1.750000*%
%ADD21R,0.797560X0.599440*%
%ADD22R,0.762000X0.558000*%
%ADD23R,0.762000X0.608000*%
%ADD24R,0.762000X0.600000*%
%ADD25C,0.900000*%
%ADD26C,1.000000*%
%ADD27C,0.500000*%
%ADD28C,0.254000*%
%ADD29C,0.700000*%
%ADD30C,0.030000*%
G04 APERTURE END LIST*
D10*
D11*
X179000000Y-112000000D03*
X219000000Y-112000000D03*
D12*
X213500000Y-118875000D03*
X213500000Y-116125000D03*
D13*
X193901140Y-110000000D03*
X190898860Y-110000000D03*
D14*
X193847800Y-107400000D03*
X190952200Y-107400000D03*
X207302200Y-116050000D03*
X210197800Y-116050000D03*
D15*
X216421500Y-119000000D03*
X221578500Y-119000000D03*
D16*
X199600000Y-109250000D03*
X199600000Y-113950000D03*
D17*
X207460000Y-112000000D03*
D18*
X212540000Y-112000000D03*
D19*
X209449820Y-117950040D03*
X209449820Y-119849960D03*
X207250180Y-118900000D03*
D20*
X188375000Y-108500000D03*
X185625000Y-108500000D03*
X188375000Y-111000000D03*
X185625000Y-111000000D03*
X188375000Y-118500000D03*
X185625000Y-118500000D03*
X188375000Y-113500000D03*
X185625000Y-113500000D03*
X188375000Y-116000000D03*
X185625000Y-116000000D03*
D21*
X211500000Y-119789940D03*
X211500000Y-118210060D03*
D22*
X193670000Y-112047500D03*
X193670000Y-113952500D03*
D23*
X191130000Y-112097500D03*
D22*
X193670000Y-113000000D03*
D24*
X191130000Y-113902500D03*
D25*
X199898000Y-116586000D03*
X199898000Y-117983000D03*
X199898000Y-119380000D03*
X197866000Y-119380000D03*
X197874090Y-118000000D03*
X197866000Y-116586000D03*
X198900000Y-116600000D03*
X198900000Y-118000000D03*
X198900000Y-119400000D03*
X228219000Y-113411000D03*
X170800000Y-113200000D03*
X226900000Y-112000000D03*
X226900000Y-113400000D03*
X226900000Y-110500000D03*
X170750000Y-110750000D03*
X170750000Y-112000000D03*
X171750000Y-113250000D03*
X171750000Y-112000000D03*
X171750000Y-110750000D03*
X228250000Y-110500000D03*
X228250000Y-112000000D03*
D26*
X188375000Y-110500000D02*
X188375000Y-108000000D01*
X188375000Y-113500000D02*
X188375000Y-110500000D01*
X188375000Y-116000000D02*
X188375000Y-113500000D01*
X188375000Y-118500000D02*
X188375000Y-116000000D01*
X209084482Y-105800560D02*
X193665651Y-105800560D01*
X193665651Y-105800560D02*
X192701500Y-105800560D01*
D27*
X211500000Y-119789940D02*
X211599060Y-119789940D01*
X211599060Y-119789940D02*
X212809120Y-121000000D01*
X212809120Y-121000000D02*
X221348500Y-121000000D01*
X221348500Y-121000000D02*
X221578500Y-120770000D01*
X221578500Y-120770000D02*
X221578500Y-119000000D01*
D26*
X188738328Y-108540672D02*
X188738328Y-109252672D01*
X188738328Y-109252672D02*
X188137000Y-109854000D01*
X189900000Y-106400000D02*
X189900000Y-107379000D01*
X189900000Y-107379000D02*
X188738328Y-108540672D01*
X188765000Y-107535000D02*
X189900000Y-106400000D01*
X188119000Y-107535000D02*
X188765000Y-107535000D01*
X189599440Y-105800560D02*
X188119000Y-107281000D01*
X188119000Y-107281000D02*
X188119000Y-107535000D01*
X191049440Y-105800560D02*
X189599440Y-105800560D01*
X191049440Y-105800560D02*
X191049440Y-106229560D01*
X191049440Y-106229560D02*
X189744000Y-107535000D01*
X189744000Y-107535000D02*
X188119000Y-107535000D01*
X192701500Y-105800560D02*
X191049440Y-105800560D01*
X188119000Y-107535000D02*
X190967060Y-107535000D01*
X190967060Y-107535000D02*
X192701500Y-105800560D01*
X189291127Y-112708873D02*
X189291127Y-112145417D01*
X189291127Y-112145417D02*
X188147000Y-111001290D01*
X190071742Y-111928258D02*
X190550000Y-111450000D01*
X189291127Y-112708873D02*
X190071742Y-111928258D01*
X190071742Y-111928258D02*
X190071742Y-109821742D01*
X190071742Y-109821742D02*
X189291127Y-109041127D01*
X188147000Y-112282000D02*
X188147000Y-111001290D01*
X188147000Y-111001290D02*
X189148290Y-110000000D01*
X189148290Y-110000000D02*
X190898860Y-110000000D01*
X188201501Y-113798499D02*
X189291127Y-112708873D01*
X189100000Y-108850000D02*
X189291127Y-109041127D01*
X189291127Y-109041127D02*
X189291127Y-112708873D01*
X190465051Y-108850000D02*
X189100000Y-108850000D01*
X190550000Y-108765051D02*
X190465051Y-108850000D01*
X190550000Y-111450000D02*
X190550000Y-108765051D01*
X188119000Y-107535000D02*
X188119000Y-113798499D01*
X188119000Y-113798499D02*
X188201501Y-113798499D01*
X188175000Y-115002500D02*
X191130000Y-112047500D01*
X188147000Y-114762000D02*
X188147000Y-112282000D01*
X190400000Y-108200000D02*
X189050000Y-108200000D01*
X190952200Y-107647800D02*
X190400000Y-108200000D01*
X190952200Y-107400000D02*
X190952200Y-107647800D01*
X188119000Y-107535000D02*
X190817200Y-107535000D01*
X190817200Y-107535000D02*
X190952200Y-107400000D01*
D27*
X190898860Y-110000000D02*
X190898860Y-111816360D01*
X190898860Y-111816360D02*
X191130000Y-112047500D01*
D26*
X191653098Y-106848962D02*
X191102060Y-107400000D01*
X192701500Y-105800560D02*
X191653098Y-106848962D01*
X191653098Y-106848962D02*
X190898860Y-107603200D01*
X190898860Y-107603200D02*
X190898860Y-110000000D01*
X191102060Y-107400000D02*
X190952200Y-107400000D01*
D27*
X191130000Y-112047500D02*
X191130000Y-110231140D01*
X191130000Y-110231140D02*
X190898860Y-110000000D01*
X191130000Y-112047500D02*
X191130000Y-107577800D01*
X191130000Y-107577800D02*
X190952200Y-107400000D01*
D26*
X215000000Y-111716078D02*
X209084482Y-105800560D01*
X221578500Y-119000000D02*
X221578500Y-118578500D01*
X221578500Y-118578500D02*
X218921500Y-115921500D01*
X218921500Y-115921500D02*
X215921500Y-115921500D01*
X215000000Y-115000000D02*
X215000000Y-111716078D01*
X215921500Y-115921500D02*
X215000000Y-115000000D01*
X209456740Y-121145998D02*
X209456740Y-119856880D01*
X209456740Y-119856880D02*
X209449820Y-119849960D01*
X206000000Y-121145998D02*
X206000000Y-120850000D01*
X206683091Y-120166909D02*
X209449820Y-120166909D01*
X206000000Y-120850000D02*
X206683091Y-120166909D01*
X209449820Y-120166909D02*
X209449820Y-119849960D01*
X209449820Y-119849960D02*
X209449820Y-120166909D01*
X209449820Y-120166909D02*
X208470731Y-121145998D01*
X208470731Y-121145998D02*
X206000000Y-121145998D01*
X207368097Y-121145998D02*
X208470731Y-121145998D01*
X206731962Y-121145998D02*
X207368097Y-121145998D01*
X208470731Y-121145998D02*
X209456740Y-121145998D01*
X206000000Y-121145998D02*
X206731962Y-121145998D01*
D28*
X205318874Y-121145998D02*
X209456740Y-121145998D01*
D26*
X205318874Y-121145998D02*
X193145998Y-121145998D01*
X206000000Y-121145998D02*
X205318874Y-121145998D01*
D28*
X193670000Y-113000000D02*
X193035000Y-113000000D01*
X193035000Y-113000000D02*
X192500000Y-113000000D01*
D27*
X192500000Y-112700000D02*
X192200000Y-112400000D01*
X192800000Y-113000000D02*
X192500000Y-112700000D01*
X192200000Y-112400000D02*
X192200000Y-111000000D01*
X192200000Y-111000000D02*
X193200000Y-110000000D01*
X193200000Y-110000000D02*
X194200000Y-110000000D01*
X194200000Y-110000000D02*
X193901140Y-110000000D01*
X193670000Y-113000000D02*
X192800000Y-113000000D01*
D26*
X192500000Y-113000000D02*
X192500000Y-112700000D01*
X192400000Y-120500000D02*
X192400000Y-113000000D01*
X193145998Y-121145998D02*
X192500000Y-120500000D01*
X193750000Y-110000000D02*
X193901140Y-110000000D01*
X192500000Y-111250000D02*
X193750000Y-110000000D01*
X192500000Y-111500000D02*
X192500000Y-111250000D01*
X192500000Y-113000000D02*
X192500000Y-111500000D01*
X199898000Y-119380000D02*
X199898000Y-117983000D01*
X199898000Y-119380000D02*
X199898000Y-118641277D01*
X199898000Y-118641277D02*
X199898000Y-117983000D01*
X199898000Y-116586000D02*
X199898000Y-119380000D01*
X199898000Y-119380000D02*
X198920000Y-119380000D01*
X198920000Y-119380000D02*
X198900000Y-119400000D01*
X198900000Y-119400000D02*
X199878000Y-119400000D01*
X199878000Y-119400000D02*
X199898000Y-119380000D01*
X199898000Y-117983000D02*
X199898000Y-118402000D01*
X199898000Y-118402000D02*
X198900000Y-119400000D01*
X199898000Y-117983000D02*
X198917000Y-117983000D01*
X198917000Y-117983000D02*
X198900000Y-118000000D01*
X199898000Y-116586000D02*
X199898000Y-117983000D01*
X197866000Y-116586000D02*
X199898000Y-116586000D01*
X198900000Y-118000000D02*
X198900000Y-117620000D01*
X198900000Y-117620000D02*
X197866000Y-116586000D01*
X198900000Y-118000000D02*
X198900000Y-116600000D01*
X197866000Y-119380000D02*
X197866000Y-119034000D01*
X197866000Y-119034000D02*
X198900000Y-118000000D01*
X197866000Y-119380000D02*
X198880000Y-119380000D01*
X198880000Y-119380000D02*
X198900000Y-119400000D01*
X197874090Y-118000000D02*
X197874090Y-119371910D01*
X197874090Y-119371910D02*
X197866000Y-119380000D01*
X197866000Y-116586000D02*
X197866000Y-117991910D01*
X197866000Y-117991910D02*
X197874090Y-118000000D01*
D28*
X197866000Y-119380000D02*
X199898000Y-119380000D01*
X198900000Y-116600000D02*
X197880000Y-116600000D01*
X197880000Y-116600000D02*
X197866000Y-116586000D01*
D27*
X199600000Y-115900000D02*
X198900000Y-116600000D01*
X198900000Y-118000000D02*
X198900000Y-119400000D01*
X199600000Y-113950000D02*
X199600000Y-115900000D01*
D26*
X185625000Y-108500000D02*
X185625000Y-118500000D01*
D27*
X185750000Y-120000000D02*
X184210848Y-120000000D01*
X184210848Y-120000000D02*
X177600000Y-120000000D01*
D26*
X185625000Y-118500000D02*
X185625000Y-118585848D01*
X185625000Y-118585848D02*
X184210848Y-120000000D01*
X186775297Y-120250000D02*
X188150000Y-120250000D01*
X185433193Y-120250000D02*
X186775297Y-120250000D01*
X186775297Y-120250000D02*
X186775297Y-119650297D01*
X186775297Y-119650297D02*
X185625000Y-118500000D01*
X185625000Y-119929807D02*
X185369000Y-120185807D01*
D28*
X189479863Y-121318127D02*
X189348995Y-121448995D01*
X190930000Y-119867990D02*
X189479863Y-121318127D01*
X189479863Y-121318127D02*
X189243127Y-121318127D01*
X190930000Y-119667990D02*
X190930000Y-119867990D01*
X191130000Y-113952500D02*
X191130000Y-114460500D01*
X191130000Y-114460500D02*
X190930000Y-114660500D01*
X190930000Y-114660500D02*
X190930000Y-119667990D01*
D26*
X177850000Y-120250000D02*
X185433193Y-120250000D01*
X185369000Y-120185807D02*
X185433193Y-120250000D01*
X190300000Y-122400000D02*
X189348995Y-121448995D01*
X189348995Y-121448995D02*
X188150000Y-120250000D01*
D28*
X190930000Y-113952500D02*
X190930000Y-119667990D01*
D26*
X226900000Y-113400000D02*
X228716000Y-113400000D01*
X228668999Y-113860999D02*
X228219000Y-113411000D01*
X228912001Y-114104001D02*
X228668999Y-113860999D01*
X228250000Y-112934000D02*
X229420001Y-114104001D01*
X229420001Y-114104001D02*
X228912001Y-114104001D01*
X228250000Y-110500000D02*
X228250000Y-112934000D01*
X228716000Y-113400000D02*
X229420001Y-114104001D01*
D27*
X171675000Y-114075000D02*
X170800000Y-113200000D01*
X177600000Y-120000000D02*
X171675000Y-114075000D01*
D26*
X226900000Y-112000000D02*
X226900000Y-113400000D01*
X226900000Y-110500000D02*
X226900000Y-114400000D01*
X225600000Y-122400000D02*
X226900000Y-121100000D01*
X226900000Y-121100000D02*
X226900000Y-113400000D01*
X218900000Y-122400000D02*
X190300000Y-122400000D01*
X218900000Y-122400000D02*
X225600000Y-122400000D01*
X170800000Y-110800000D02*
X170750000Y-110750000D01*
X170800000Y-111500000D02*
X170800000Y-110800000D01*
X170800000Y-112000000D02*
X170800000Y-111500000D01*
X170750000Y-111950000D02*
X170750000Y-111500000D01*
X170750000Y-111500000D02*
X170800000Y-111500000D01*
X170800000Y-112000000D02*
X170750000Y-111950000D01*
X170750000Y-112000000D02*
X170800000Y-111950000D01*
X170800000Y-111950000D02*
X170800000Y-112000000D01*
X171675000Y-114000000D02*
X171675000Y-113325000D01*
X171675000Y-114075000D02*
X171675000Y-114000000D01*
X171675000Y-113325000D02*
X171750000Y-113250000D01*
X171750000Y-112000000D02*
X171750000Y-110750000D01*
X170800000Y-112050000D02*
X170800000Y-113200000D01*
X170750000Y-112000000D02*
X170800000Y-112050000D01*
X171750000Y-112000000D02*
X170750000Y-112000000D01*
X171750000Y-112000000D02*
X171750000Y-112000000D01*
X171750000Y-111500000D02*
X171750000Y-112000000D01*
X171250000Y-111500000D02*
X171750000Y-111500000D01*
X171750000Y-112000000D02*
X171250000Y-111500000D01*
X171750000Y-113250000D02*
X171750000Y-112000000D01*
X171675000Y-114075000D02*
X177850000Y-120250000D01*
X171675000Y-114000000D02*
X171675000Y-114075000D01*
X226900000Y-112000000D02*
X228250000Y-112000000D01*
X228250000Y-112050000D02*
X226900000Y-113400000D01*
X228250000Y-112000000D02*
X228250000Y-112050000D01*
X226900000Y-110500000D02*
X228250000Y-110500000D01*
D29*
X193670000Y-112047500D02*
X194751000Y-112047500D01*
X194751000Y-112047500D02*
X195405711Y-111392789D01*
X195405711Y-111392789D02*
X195405711Y-111299289D01*
D28*
X193670000Y-112047500D02*
X193670000Y-112019000D01*
X195199000Y-111506000D02*
X195405711Y-111299289D01*
X195405711Y-111299289D02*
X195324509Y-111380491D01*
X195053211Y-111299289D02*
X195405711Y-111299289D01*
D26*
X197455000Y-109250000D02*
X195405711Y-111299289D01*
X199600000Y-109250000D02*
X197455000Y-109250000D01*
X194268000Y-107400000D02*
X196118000Y-109250000D01*
X196118000Y-109250000D02*
X199600000Y-109250000D01*
X193847800Y-107400000D02*
X194268000Y-107400000D01*
X193847800Y-107400000D02*
X197750000Y-107400000D01*
X197750000Y-107400000D02*
X199600000Y-109250000D01*
D27*
X193997660Y-107400000D02*
X193847800Y-107400000D01*
X197348500Y-109250000D02*
X199600000Y-109250000D01*
D28*
X211500000Y-118210060D02*
X211599060Y-118210060D01*
D26*
X209449820Y-117950040D02*
X211239980Y-117950040D01*
X211239980Y-117950040D02*
X211500000Y-118210060D01*
X210297800Y-115950000D02*
X210197800Y-116050000D01*
X209449820Y-117950040D02*
X209449820Y-116797980D01*
X209449820Y-116797980D02*
X210197800Y-116050000D01*
X213500000Y-118875000D02*
X216296500Y-118875000D01*
X216296500Y-118875000D02*
X216421500Y-119000000D01*
X207250180Y-118900000D02*
X207250180Y-118899820D01*
X207250180Y-118899820D02*
X207950000Y-118200000D01*
X207950000Y-118200000D02*
X207950000Y-112490000D01*
X207950000Y-112490000D02*
X207460000Y-112000000D01*
X207460000Y-112000000D02*
X207460000Y-112040000D01*
X207460000Y-112040000D02*
X206500000Y-113000000D01*
X206500000Y-113000000D02*
X206500000Y-118149820D01*
X206500000Y-118149820D02*
X207250180Y-118900000D01*
X207250180Y-118900000D02*
X207250180Y-116102020D01*
X207250180Y-116102020D02*
X207302200Y-116050000D01*
X207302200Y-116050000D02*
X207302200Y-112157800D01*
X207302200Y-112157800D02*
X207460000Y-112000000D01*
D27*
X207460000Y-112000000D02*
X207460000Y-113340000D01*
D26*
X212540000Y-114960000D02*
X213000000Y-115420000D01*
X213000000Y-115420000D02*
X213000000Y-115625000D01*
X213000000Y-115625000D02*
X213500000Y-116125000D01*
X212540000Y-112000000D02*
X212540000Y-114960000D01*
X212573426Y-112000000D02*
X212540000Y-112000000D01*
D30*
G36*
X231410000Y-124410000D02*
X222716000Y-124410000D01*
X222716000Y-120320723D01*
X222716000Y-120219277D01*
X222716000Y-117679277D01*
X222696209Y-117579780D01*
X222657387Y-117486056D01*
X222601027Y-117401707D01*
X222529293Y-117329973D01*
X222444944Y-117273613D01*
X222351220Y-117234791D01*
X222251723Y-117215000D01*
X222150277Y-117215000D01*
X221650426Y-117215000D01*
X219639213Y-115203787D01*
X219566795Y-115144302D01*
X219494942Y-115084010D01*
X219490263Y-115081437D01*
X219486140Y-115078051D01*
X219403517Y-115033748D01*
X219343939Y-115000996D01*
X219814716Y-114917986D01*
X220365973Y-114704167D01*
X220865201Y-114387348D01*
X221293383Y-113979595D01*
X221634211Y-113496440D01*
X221874703Y-112956287D01*
X222005699Y-112379708D01*
X222015129Y-111704364D01*
X221900284Y-111124353D01*
X221674967Y-110577695D01*
X221347763Y-110085212D01*
X220931132Y-109665662D01*
X220440945Y-109335027D01*
X219895874Y-109105900D01*
X219316678Y-108987008D01*
X218725421Y-108982881D01*
X218144622Y-109093674D01*
X217596404Y-109315168D01*
X217101649Y-109638927D01*
X216679201Y-110052618D01*
X216345152Y-110540485D01*
X216112225Y-111083944D01*
X216003472Y-111595583D01*
X215997680Y-111529368D01*
X215996189Y-111524237D01*
X215995669Y-111518930D01*
X215968583Y-111429217D01*
X215942413Y-111339140D01*
X215939956Y-111334400D01*
X215938414Y-111329292D01*
X215894418Y-111246548D01*
X215851251Y-111163269D01*
X215847918Y-111159094D01*
X215845415Y-111154386D01*
X215786190Y-111081769D01*
X215727665Y-111008456D01*
X215720337Y-111001025D01*
X215720214Y-111000874D01*
X215720073Y-111000758D01*
X215717714Y-110998365D01*
X209802195Y-105082847D01*
X209729777Y-105023362D01*
X209657924Y-104963070D01*
X209653245Y-104960497D01*
X209649122Y-104957111D01*
X209566499Y-104912808D01*
X209484333Y-104867638D01*
X209479246Y-104866024D01*
X209474542Y-104863502D01*
X209384894Y-104836094D01*
X209295512Y-104807740D01*
X209290206Y-104807144D01*
X209285104Y-104805585D01*
X209191837Y-104796111D01*
X209098654Y-104785659D01*
X209088223Y-104785586D01*
X209088025Y-104785566D01*
X209087840Y-104785583D01*
X209084482Y-104785560D01*
X193665651Y-104785560D01*
X192701500Y-104785560D01*
X191049440Y-104785560D01*
X189599440Y-104785560D01*
X189506113Y-104794710D01*
X189412730Y-104802881D01*
X189407604Y-104804370D01*
X189402292Y-104804891D01*
X189312538Y-104831989D01*
X189222502Y-104858147D01*
X189217762Y-104860603D01*
X189212654Y-104862146D01*
X189129871Y-104906162D01*
X189046631Y-104949310D01*
X189042460Y-104952639D01*
X189037748Y-104955145D01*
X188965073Y-105014416D01*
X188891818Y-105072896D01*
X188884388Y-105080221D01*
X188884236Y-105080346D01*
X188884118Y-105080487D01*
X188881726Y-105082847D01*
X187401287Y-106563287D01*
X187341802Y-106635704D01*
X187281510Y-106707558D01*
X187278937Y-106712236D01*
X187275551Y-106716360D01*
X187231248Y-106798982D01*
X187186078Y-106881149D01*
X187184464Y-106886235D01*
X187181942Y-106890940D01*
X187154534Y-106980587D01*
X187126180Y-107069970D01*
X187125584Y-107075275D01*
X187124025Y-107080378D01*
X187114551Y-107173644D01*
X187104099Y-107266828D01*
X187104026Y-107277258D01*
X187104006Y-107277457D01*
X187104023Y-107277641D01*
X187104000Y-107281000D01*
X187104000Y-107535000D01*
X187104000Y-113798499D01*
X187113316Y-113893517D01*
X187121978Y-113988691D01*
X187122984Y-113992109D01*
X187123331Y-113995647D01*
X187132000Y-114024360D01*
X187132000Y-114762000D01*
X187151331Y-114959148D01*
X187160847Y-114990669D01*
X187160006Y-114998957D01*
X187178648Y-115196171D01*
X187235000Y-115385197D01*
X187235000Y-116925723D01*
X187254791Y-117025220D01*
X187293613Y-117118944D01*
X187349973Y-117203293D01*
X187360000Y-117213320D01*
X187360000Y-117286680D01*
X187349973Y-117296707D01*
X187293613Y-117381056D01*
X187254791Y-117474780D01*
X187235000Y-117574277D01*
X187235000Y-117675723D01*
X187235000Y-119425723D01*
X187254791Y-119525220D01*
X187293613Y-119618944D01*
X187349973Y-119703293D01*
X187421707Y-119775027D01*
X187506056Y-119831387D01*
X187599780Y-119870209D01*
X187699277Y-119890000D01*
X187800723Y-119890000D01*
X189050723Y-119890000D01*
X189150220Y-119870209D01*
X189243944Y-119831387D01*
X189328293Y-119775027D01*
X189400027Y-119703293D01*
X189456387Y-119618944D01*
X189495209Y-119525220D01*
X189515000Y-119425723D01*
X189515000Y-119324277D01*
X189515000Y-117574277D01*
X189495209Y-117474780D01*
X189456387Y-117381056D01*
X189400027Y-117296707D01*
X189390000Y-117286680D01*
X189390000Y-117213320D01*
X189400027Y-117203293D01*
X189456387Y-117118944D01*
X189495209Y-117025220D01*
X189515000Y-116925723D01*
X189515000Y-116824277D01*
X189515000Y-115097926D01*
X191385000Y-113227926D01*
X191385000Y-120500000D01*
X191404331Y-120697148D01*
X191461586Y-120886786D01*
X191554585Y-121061692D01*
X191679786Y-121215204D01*
X191832419Y-121341473D01*
X191992722Y-121428148D01*
X192428285Y-121863711D01*
X192500702Y-121923195D01*
X192572556Y-121983488D01*
X192577234Y-121986060D01*
X192581358Y-121989447D01*
X192663980Y-122033749D01*
X192746147Y-122078920D01*
X192751233Y-122080533D01*
X192755938Y-122083056D01*
X192845598Y-122110467D01*
X192934968Y-122138818D01*
X192940272Y-122139412D01*
X192945375Y-122140973D01*
X193038647Y-122150447D01*
X193131826Y-122160899D01*
X193142256Y-122160971D01*
X193142455Y-122160992D01*
X193142639Y-122160974D01*
X193145998Y-122160998D01*
X205318874Y-122160998D01*
X206000000Y-122160998D01*
X206731962Y-122160998D01*
X207368097Y-122160998D01*
X208470731Y-122160998D01*
X209456740Y-122160998D01*
X209551758Y-122151681D01*
X209646932Y-122143020D01*
X209650350Y-122142013D01*
X209653888Y-122141667D01*
X209745219Y-122114092D01*
X209836966Y-122087090D01*
X209840123Y-122085439D01*
X209843526Y-122084412D01*
X209927771Y-122039617D01*
X210012517Y-121995314D01*
X210015292Y-121993082D01*
X210018432Y-121991413D01*
X210092414Y-121931074D01*
X210166898Y-121871188D01*
X210169185Y-121868461D01*
X210171944Y-121866212D01*
X210232828Y-121792615D01*
X210294230Y-121719440D01*
X210295944Y-121716320D01*
X210298213Y-121713579D01*
X210343646Y-121629551D01*
X210389662Y-121545849D01*
X210390737Y-121542457D01*
X210392431Y-121539326D01*
X210420680Y-121448065D01*
X210449560Y-121357028D01*
X210449956Y-121353491D01*
X210451009Y-121350092D01*
X210460991Y-121255113D01*
X210471641Y-121160170D01*
X210471688Y-121153333D01*
X210471715Y-121153084D01*
X210471692Y-121152833D01*
X210471740Y-121145998D01*
X210471740Y-120753201D01*
X210477883Y-120749097D01*
X210549617Y-120677363D01*
X210605977Y-120593014D01*
X210644799Y-120499290D01*
X210664590Y-120399793D01*
X210664590Y-120363172D01*
X210701193Y-120417953D01*
X210772927Y-120489687D01*
X210857276Y-120546047D01*
X210951000Y-120584869D01*
X211050497Y-120604660D01*
X211151943Y-120604660D01*
X211331906Y-120604660D01*
X212268183Y-121540937D01*
X212322812Y-121585810D01*
X212376920Y-121631212D01*
X212380444Y-121633149D01*
X212383553Y-121635703D01*
X212445813Y-121669086D01*
X212507754Y-121703139D01*
X212511590Y-121704355D01*
X212515134Y-121706256D01*
X212582722Y-121726920D01*
X212650068Y-121748283D01*
X212654062Y-121748731D01*
X212657912Y-121749908D01*
X212728250Y-121757052D01*
X212798439Y-121764925D01*
X212806303Y-121764980D01*
X212806449Y-121764995D01*
X212806584Y-121764982D01*
X212809120Y-121765000D01*
X221348500Y-121765000D01*
X221418822Y-121758104D01*
X221489223Y-121751946D01*
X221493087Y-121750823D01*
X221497089Y-121750431D01*
X221564729Y-121730009D01*
X221632596Y-121710292D01*
X221636166Y-121708441D01*
X221640019Y-121707278D01*
X221702435Y-121674090D01*
X221765149Y-121641583D01*
X221768291Y-121639074D01*
X221771845Y-121637185D01*
X221826654Y-121592483D01*
X221881831Y-121548436D01*
X221887429Y-121542915D01*
X221887545Y-121542822D01*
X221887633Y-121542715D01*
X221889437Y-121540937D01*
X222119437Y-121310937D01*
X222164310Y-121256307D01*
X222209712Y-121202200D01*
X222211649Y-121198675D01*
X222214203Y-121195567D01*
X222247586Y-121133306D01*
X222281639Y-121071366D01*
X222282855Y-121067529D01*
X222284756Y-121063986D01*
X222305420Y-120996397D01*
X222326783Y-120929052D01*
X222327231Y-120925057D01*
X222328408Y-120921208D01*
X222335552Y-120850869D01*
X222343425Y-120780681D01*
X222343480Y-120772816D01*
X222343495Y-120772671D01*
X222343482Y-120772535D01*
X222343500Y-120770000D01*
X222343500Y-120766744D01*
X222351220Y-120765209D01*
X222444944Y-120726387D01*
X222529293Y-120670027D01*
X222601027Y-120598293D01*
X222657387Y-120513944D01*
X222696209Y-120420220D01*
X222716000Y-120320723D01*
X222716000Y-124410000D01*
X182015129Y-124410000D01*
X182015129Y-111704364D01*
X181900284Y-111124353D01*
X181674967Y-110577695D01*
X181347763Y-110085212D01*
X180931132Y-109665662D01*
X180440945Y-109335027D01*
X179895874Y-109105900D01*
X179316678Y-108987008D01*
X178725421Y-108982881D01*
X178144622Y-109093674D01*
X177596404Y-109315168D01*
X177101649Y-109638927D01*
X176679201Y-110052618D01*
X176345152Y-110540485D01*
X176112225Y-111083944D01*
X175989293Y-111662295D01*
X175981037Y-112253509D01*
X176087773Y-112835068D01*
X176305435Y-113384818D01*
X176625732Y-113881822D01*
X177036464Y-114307147D01*
X177521986Y-114644594D01*
X178063806Y-114881309D01*
X178641285Y-115008276D01*
X179232427Y-115020659D01*
X179814716Y-114917986D01*
X180365973Y-114704167D01*
X180865201Y-114387348D01*
X181293383Y-113979595D01*
X181634211Y-113496440D01*
X181874703Y-112956287D01*
X182005699Y-112379708D01*
X182015129Y-111704364D01*
X182015129Y-124410000D01*
X166590000Y-124410000D01*
X166590000Y-99590000D01*
X231410000Y-99590000D01*
X231410000Y-124410000D01*
X231410000Y-124410000D01*
G37*
X231410000Y-124410000D02*
X222716000Y-124410000D01*
X222716000Y-120320723D01*
X222716000Y-120219277D01*
X222716000Y-117679277D01*
X222696209Y-117579780D01*
X222657387Y-117486056D01*
X222601027Y-117401707D01*
X222529293Y-117329973D01*
X222444944Y-117273613D01*
X222351220Y-117234791D01*
X222251723Y-117215000D01*
X222150277Y-117215000D01*
X221650426Y-117215000D01*
X219639213Y-115203787D01*
X219566795Y-115144302D01*
X219494942Y-115084010D01*
X219490263Y-115081437D01*
X219486140Y-115078051D01*
X219403517Y-115033748D01*
X219343939Y-115000996D01*
X219814716Y-114917986D01*
X220365973Y-114704167D01*
X220865201Y-114387348D01*
X221293383Y-113979595D01*
X221634211Y-113496440D01*
X221874703Y-112956287D01*
X222005699Y-112379708D01*
X222015129Y-111704364D01*
X221900284Y-111124353D01*
X221674967Y-110577695D01*
X221347763Y-110085212D01*
X220931132Y-109665662D01*
X220440945Y-109335027D01*
X219895874Y-109105900D01*
X219316678Y-108987008D01*
X218725421Y-108982881D01*
X218144622Y-109093674D01*
X217596404Y-109315168D01*
X217101649Y-109638927D01*
X216679201Y-110052618D01*
X216345152Y-110540485D01*
X216112225Y-111083944D01*
X216003472Y-111595583D01*
X215997680Y-111529368D01*
X215996189Y-111524237D01*
X215995669Y-111518930D01*
X215968583Y-111429217D01*
X215942413Y-111339140D01*
X215939956Y-111334400D01*
X215938414Y-111329292D01*
X215894418Y-111246548D01*
X215851251Y-111163269D01*
X215847918Y-111159094D01*
X215845415Y-111154386D01*
X215786190Y-111081769D01*
X215727665Y-111008456D01*
X215720337Y-111001025D01*
X215720214Y-111000874D01*
X215720073Y-111000758D01*
X215717714Y-110998365D01*
X209802195Y-105082847D01*
X209729777Y-105023362D01*
X209657924Y-104963070D01*
X209653245Y-104960497D01*
X209649122Y-104957111D01*
X209566499Y-104912808D01*
X209484333Y-104867638D01*
X209479246Y-104866024D01*
X209474542Y-104863502D01*
X209384894Y-104836094D01*
X209295512Y-104807740D01*
X209290206Y-104807144D01*
X209285104Y-104805585D01*
X209191837Y-104796111D01*
X209098654Y-104785659D01*
X209088223Y-104785586D01*
X209088025Y-104785566D01*
X209087840Y-104785583D01*
X209084482Y-104785560D01*
X193665651Y-104785560D01*
X192701500Y-104785560D01*
X191049440Y-104785560D01*
X189599440Y-104785560D01*
X189506113Y-104794710D01*
X189412730Y-104802881D01*
X189407604Y-104804370D01*
X189402292Y-104804891D01*
X189312538Y-104831989D01*
X189222502Y-104858147D01*
X189217762Y-104860603D01*
X189212654Y-104862146D01*
X189129871Y-104906162D01*
X189046631Y-104949310D01*
X189042460Y-104952639D01*
X189037748Y-104955145D01*
X188965073Y-105014416D01*
X188891818Y-105072896D01*
X188884388Y-105080221D01*
X188884236Y-105080346D01*
X188884118Y-105080487D01*
X188881726Y-105082847D01*
X187401287Y-106563287D01*
X187341802Y-106635704D01*
X187281510Y-106707558D01*
X187278937Y-106712236D01*
X187275551Y-106716360D01*
X187231248Y-106798982D01*
X187186078Y-106881149D01*
X187184464Y-106886235D01*
X187181942Y-106890940D01*
X187154534Y-106980587D01*
X187126180Y-107069970D01*
X187125584Y-107075275D01*
X187124025Y-107080378D01*
X187114551Y-107173644D01*
X187104099Y-107266828D01*
X187104026Y-107277258D01*
X187104006Y-107277457D01*
X187104023Y-107277641D01*
X187104000Y-107281000D01*
X187104000Y-107535000D01*
X187104000Y-113798499D01*
X187113316Y-113893517D01*
X187121978Y-113988691D01*
X187122984Y-113992109D01*
X187123331Y-113995647D01*
X187132000Y-114024360D01*
X187132000Y-114762000D01*
X187151331Y-114959148D01*
X187160847Y-114990669D01*
X187160006Y-114998957D01*
X187178648Y-115196171D01*
X187235000Y-115385197D01*
X187235000Y-116925723D01*
X187254791Y-117025220D01*
X187293613Y-117118944D01*
X187349973Y-117203293D01*
X187360000Y-117213320D01*
X187360000Y-117286680D01*
X187349973Y-117296707D01*
X187293613Y-117381056D01*
X187254791Y-117474780D01*
X187235000Y-117574277D01*
X187235000Y-117675723D01*
X187235000Y-119425723D01*
X187254791Y-119525220D01*
X187293613Y-119618944D01*
X187349973Y-119703293D01*
X187421707Y-119775027D01*
X187506056Y-119831387D01*
X187599780Y-119870209D01*
X187699277Y-119890000D01*
X187800723Y-119890000D01*
X189050723Y-119890000D01*
X189150220Y-119870209D01*
X189243944Y-119831387D01*
X189328293Y-119775027D01*
X189400027Y-119703293D01*
X189456387Y-119618944D01*
X189495209Y-119525220D01*
X189515000Y-119425723D01*
X189515000Y-119324277D01*
X189515000Y-117574277D01*
X189495209Y-117474780D01*
X189456387Y-117381056D01*
X189400027Y-117296707D01*
X189390000Y-117286680D01*
X189390000Y-117213320D01*
X189400027Y-117203293D01*
X189456387Y-117118944D01*
X189495209Y-117025220D01*
X189515000Y-116925723D01*
X189515000Y-116824277D01*
X189515000Y-115097926D01*
X191385000Y-113227926D01*
X191385000Y-120500000D01*
X191404331Y-120697148D01*
X191461586Y-120886786D01*
X191554585Y-121061692D01*
X191679786Y-121215204D01*
X191832419Y-121341473D01*
X191992722Y-121428148D01*
X192428285Y-121863711D01*
X192500702Y-121923195D01*
X192572556Y-121983488D01*
X192577234Y-121986060D01*
X192581358Y-121989447D01*
X192663980Y-122033749D01*
X192746147Y-122078920D01*
X192751233Y-122080533D01*
X192755938Y-122083056D01*
X192845598Y-122110467D01*
X192934968Y-122138818D01*
X192940272Y-122139412D01*
X192945375Y-122140973D01*
X193038647Y-122150447D01*
X193131826Y-122160899D01*
X193142256Y-122160971D01*
X193142455Y-122160992D01*
X193142639Y-122160974D01*
X193145998Y-122160998D01*
X205318874Y-122160998D01*
X206000000Y-122160998D01*
X206731962Y-122160998D01*
X207368097Y-122160998D01*
X208470731Y-122160998D01*
X209456740Y-122160998D01*
X209551758Y-122151681D01*
X209646932Y-122143020D01*
X209650350Y-122142013D01*
X209653888Y-122141667D01*
X209745219Y-122114092D01*
X209836966Y-122087090D01*
X209840123Y-122085439D01*
X209843526Y-122084412D01*
X209927771Y-122039617D01*
X210012517Y-121995314D01*
X210015292Y-121993082D01*
X210018432Y-121991413D01*
X210092414Y-121931074D01*
X210166898Y-121871188D01*
X210169185Y-121868461D01*
X210171944Y-121866212D01*
X210232828Y-121792615D01*
X210294230Y-121719440D01*
X210295944Y-121716320D01*
X210298213Y-121713579D01*
X210343646Y-121629551D01*
X210389662Y-121545849D01*
X210390737Y-121542457D01*
X210392431Y-121539326D01*
X210420680Y-121448065D01*
X210449560Y-121357028D01*
X210449956Y-121353491D01*
X210451009Y-121350092D01*
X210460991Y-121255113D01*
X210471641Y-121160170D01*
X210471688Y-121153333D01*
X210471715Y-121153084D01*
X210471692Y-121152833D01*
X210471740Y-121145998D01*
X210471740Y-120753201D01*
X210477883Y-120749097D01*
X210549617Y-120677363D01*
X210605977Y-120593014D01*
X210644799Y-120499290D01*
X210664590Y-120399793D01*
X210664590Y-120363172D01*
X210701193Y-120417953D01*
X210772927Y-120489687D01*
X210857276Y-120546047D01*
X210951000Y-120584869D01*
X211050497Y-120604660D01*
X211151943Y-120604660D01*
X211331906Y-120604660D01*
X212268183Y-121540937D01*
X212322812Y-121585810D01*
X212376920Y-121631212D01*
X212380444Y-121633149D01*
X212383553Y-121635703D01*
X212445813Y-121669086D01*
X212507754Y-121703139D01*
X212511590Y-121704355D01*
X212515134Y-121706256D01*
X212582722Y-121726920D01*
X212650068Y-121748283D01*
X212654062Y-121748731D01*
X212657912Y-121749908D01*
X212728250Y-121757052D01*
X212798439Y-121764925D01*
X212806303Y-121764980D01*
X212806449Y-121764995D01*
X212806584Y-121764982D01*
X212809120Y-121765000D01*
X221348500Y-121765000D01*
X221418822Y-121758104D01*
X221489223Y-121751946D01*
X221493087Y-121750823D01*
X221497089Y-121750431D01*
X221564729Y-121730009D01*
X221632596Y-121710292D01*
X221636166Y-121708441D01*
X221640019Y-121707278D01*
X221702435Y-121674090D01*
X221765149Y-121641583D01*
X221768291Y-121639074D01*
X221771845Y-121637185D01*
X221826654Y-121592483D01*
X221881831Y-121548436D01*
X221887429Y-121542915D01*
X221887545Y-121542822D01*
X221887633Y-121542715D01*
X221889437Y-121540937D01*
X222119437Y-121310937D01*
X222164310Y-121256307D01*
X222209712Y-121202200D01*
X222211649Y-121198675D01*
X222214203Y-121195567D01*
X222247586Y-121133306D01*
X222281639Y-121071366D01*
X222282855Y-121067529D01*
X222284756Y-121063986D01*
X222305420Y-120996397D01*
X222326783Y-120929052D01*
X222327231Y-120925057D01*
X222328408Y-120921208D01*
X222335552Y-120850869D01*
X222343425Y-120780681D01*
X222343480Y-120772816D01*
X222343495Y-120772671D01*
X222343482Y-120772535D01*
X222343500Y-120770000D01*
X222343500Y-120766744D01*
X222351220Y-120765209D01*
X222444944Y-120726387D01*
X222529293Y-120670027D01*
X222601027Y-120598293D01*
X222657387Y-120513944D01*
X222696209Y-120420220D01*
X222716000Y-120320723D01*
X222716000Y-124410000D01*
X182015129Y-124410000D01*
X182015129Y-111704364D01*
X181900284Y-111124353D01*
X181674967Y-110577695D01*
X181347763Y-110085212D01*
X180931132Y-109665662D01*
X180440945Y-109335027D01*
X179895874Y-109105900D01*
X179316678Y-108987008D01*
X178725421Y-108982881D01*
X178144622Y-109093674D01*
X177596404Y-109315168D01*
X177101649Y-109638927D01*
X176679201Y-110052618D01*
X176345152Y-110540485D01*
X176112225Y-111083944D01*
X175989293Y-111662295D01*
X175981037Y-112253509D01*
X176087773Y-112835068D01*
X176305435Y-113384818D01*
X176625732Y-113881822D01*
X177036464Y-114307147D01*
X177521986Y-114644594D01*
X178063806Y-114881309D01*
X178641285Y-115008276D01*
X179232427Y-115020659D01*
X179814716Y-114917986D01*
X180365973Y-114704167D01*
X180865201Y-114387348D01*
X181293383Y-113979595D01*
X181634211Y-113496440D01*
X181874703Y-112956287D01*
X182005699Y-112379708D01*
X182015129Y-111704364D01*
X182015129Y-124410000D01*
X166590000Y-124410000D01*
X166590000Y-99590000D01*
X231410000Y-99590000D01*
X231410000Y-124410000D01*
G36*
X205344000Y-120376998D02*
X205318874Y-120376998D01*
X193464528Y-120376998D01*
X193309000Y-120221470D01*
X193309000Y-114500500D01*
X193315494Y-114500500D01*
X194077494Y-114500500D01*
X194129464Y-114490163D01*
X194178419Y-114469885D01*
X194222477Y-114440446D01*
X194259946Y-114402978D01*
X194289385Y-114358919D01*
X194309662Y-114309965D01*
X194320000Y-114257994D01*
X194320000Y-114205006D01*
X194320000Y-113647006D01*
X194309663Y-113595036D01*
X194289385Y-113546081D01*
X194259946Y-113502023D01*
X194234173Y-113476249D01*
X194259946Y-113450478D01*
X194289385Y-113406419D01*
X194309662Y-113357465D01*
X194320000Y-113305494D01*
X194320000Y-113252506D01*
X194320000Y-112694506D01*
X194314429Y-112666500D01*
X194751000Y-112666500D01*
X194807854Y-112660925D01*
X194864865Y-112655937D01*
X194867991Y-112655028D01*
X194871231Y-112654711D01*
X194925955Y-112638188D01*
X194980877Y-112622233D01*
X194983767Y-112620734D01*
X194986883Y-112619794D01*
X195037340Y-112592964D01*
X195088132Y-112566637D01*
X195090677Y-112564604D01*
X195093549Y-112563078D01*
X195137831Y-112526962D01*
X195182545Y-112491268D01*
X195187074Y-112486801D01*
X195187169Y-112486724D01*
X195187241Y-112486636D01*
X195188699Y-112485199D01*
X195648036Y-112025861D01*
X195691293Y-112013294D01*
X195824539Y-111944227D01*
X195877435Y-111902000D01*
X205344000Y-111902000D01*
X205344000Y-120376998D01*
X205344000Y-120376998D01*
G37*
X205344000Y-120376998D02*
X205318874Y-120376998D01*
X193464528Y-120376998D01*
X193309000Y-120221470D01*
X193309000Y-114500500D01*
X193315494Y-114500500D01*
X194077494Y-114500500D01*
X194129464Y-114490163D01*
X194178419Y-114469885D01*
X194222477Y-114440446D01*
X194259946Y-114402978D01*
X194289385Y-114358919D01*
X194309662Y-114309965D01*
X194320000Y-114257994D01*
X194320000Y-114205006D01*
X194320000Y-113647006D01*
X194309663Y-113595036D01*
X194289385Y-113546081D01*
X194259946Y-113502023D01*
X194234173Y-113476249D01*
X194259946Y-113450478D01*
X194289385Y-113406419D01*
X194309662Y-113357465D01*
X194320000Y-113305494D01*
X194320000Y-113252506D01*
X194320000Y-112694506D01*
X194314429Y-112666500D01*
X194751000Y-112666500D01*
X194807854Y-112660925D01*
X194864865Y-112655937D01*
X194867991Y-112655028D01*
X194871231Y-112654711D01*
X194925955Y-112638188D01*
X194980877Y-112622233D01*
X194983767Y-112620734D01*
X194986883Y-112619794D01*
X195037340Y-112592964D01*
X195088132Y-112566637D01*
X195090677Y-112564604D01*
X195093549Y-112563078D01*
X195137831Y-112526962D01*
X195182545Y-112491268D01*
X195187074Y-112486801D01*
X195187169Y-112486724D01*
X195187241Y-112486636D01*
X195188699Y-112485199D01*
X195648036Y-112025861D01*
X195691293Y-112013294D01*
X195824539Y-111944227D01*
X195877435Y-111902000D01*
X205344000Y-111902000D01*
X205344000Y-120376998D01*
M02*
